<svg width="873" height="635" viewBox="0 0 873 635" fill="none" xmlns="http://www.w3.org/2000/svg">
<path d="M872 0.799072L340.661 295.105C334.06 298.785 334.06 307.941 340.661 311.623L428.347 360.138L285.684 439.048C278.788 442.917 270.216 442.917 263.222 439.048L231.693 421.585C226.373 418.66 219.871 418.66 214.551 421.585L43.7101 516.164L5.28579 537.401C-0.428595 540.61 -0.428595 548.444 5.28579 551.654L94.9425 601.302L146.273 629.713" stroke="#485E68" stroke-linecap="round" stroke-linejoin="round"/>
<path d="M656.43 412.808L661.552 409.976" stroke="#485E68" stroke-width="2" stroke-miterlimit="10"/>
<path d="M672.194 404.123L777.318 345.979C780.57 344.186 780.57 339.655 777.318 337.768L733.377 313.509L715.15 303.41C711.899 301.616 711.899 297.087 715.15 295.198L870.423 203.168" stroke="#485E68" stroke-width="2" stroke-miterlimit="10" stroke-dasharray="12.41 12.41"/>
<path d="M266.67 377.128L246.276 388.455L246.374 388.36C246.374 388.36 246.374 388.266 246.472 388.266L246.571 388.172C246.571 388.172 246.571 388.077 246.669 388.077L246.767 387.983C246.767 387.983 246.767 387.889 246.867 387.889L246.965 387.794C246.965 387.794 246.965 387.794 246.965 387.7C246.965 387.605 247.064 387.605 247.064 387.511C247.26 387.228 247.457 387.039 247.655 386.756C247.753 386.662 247.753 386.662 247.851 386.567C247.95 386.473 247.95 386.473 248.048 386.379C248.344 386.096 248.639 385.812 248.936 385.435L261.546 378.449C262.039 378.261 262.63 378.072 263.123 377.978C263.222 377.978 263.32 377.883 263.418 377.883C263.517 377.883 263.615 377.789 263.713 377.789C263.813 377.789 263.911 377.694 264.01 377.694C264.305 377.6 264.601 377.506 264.994 377.411C264.994 377.411 264.994 377.411 265.094 377.411C265.192 377.411 265.29 377.411 265.29 377.317H265.389C265.487 377.317 265.487 377.317 265.585 377.223C265.685 377.223 265.685 377.223 265.783 377.223C265.882 377.223 265.882 377.223 265.98 377.128C266.078 377.128 266.078 377.128 266.177 377.128C266.275 377.128 266.275 377.128 266.373 377.128C266.473 377.128 266.473 377.128 266.67 377.128C266.571 377.223 266.571 377.223 266.67 377.128Z" fill="#485E68"/>
<path d="M244.107 395.439C244.107 395.345 244.107 395.156 244.107 395.062C244.107 394.684 244.107 394.212 244.206 393.835L276.325 375.996C277.015 375.996 277.803 375.901 278.492 375.901C278.788 375.901 278.985 375.901 279.182 375.901L244.107 395.439Z" fill="#485E68"/>
<path d="M288.246 376.562L245.388 400.442C245.388 400.347 245.29 400.253 245.29 400.159C245.191 400.064 245.191 399.97 245.191 399.875C245.093 399.687 244.995 399.404 244.895 399.215L286.079 376.278C286.472 376.278 286.867 376.373 287.163 376.373C287.36 376.373 287.556 376.467 287.655 376.467C287.853 376.562 288.049 376.562 288.246 376.562Z" fill="#485E68"/>
<path d="M295.538 378.262L248.246 404.595C247.95 404.218 247.655 403.935 247.359 403.557L293.764 377.79C294.257 377.884 294.65 378.073 295.143 378.167C295.241 378.167 295.438 378.167 295.538 378.262Z" fill="#485E68"/>
<path d="M301.744 380.526L252.482 407.899C252.384 407.805 252.285 407.805 252.187 407.711C252.089 407.616 251.989 407.616 251.891 407.522C251.792 407.428 251.694 407.333 251.596 407.333C251.496 407.239 251.398 407.144 251.3 407.144L300.266 379.866C300.463 379.96 300.562 379.96 300.66 380.055C300.858 380.149 300.956 380.149 301.054 380.243C301.251 380.338 301.349 380.338 301.448 380.432C301.448 380.432 301.547 380.432 301.744 380.526Z" fill="#485E68"/>
<path d="M306.769 383.453L257.704 410.731C257.605 410.637 257.409 410.637 257.31 410.543C257.211 410.448 257.014 410.448 256.916 410.354C256.817 410.259 256.621 410.259 256.521 410.165C256.423 410.071 256.226 410.071 256.128 409.975L305.39 382.509C305.488 382.603 305.586 382.604 305.685 382.698C305.783 382.792 305.883 382.887 305.981 382.887C306.079 382.981 306.178 383.075 306.276 383.075C306.571 383.264 306.671 383.358 306.769 383.453Z" fill="#485E68"/>
<path d="M310.71 386.945L264.108 412.902C263.91 412.902 263.812 412.807 263.615 412.807C263.418 412.713 263.32 412.713 263.222 412.713C263.024 412.619 262.925 412.619 262.729 412.619C262.531 412.524 262.334 412.524 262.236 412.43L309.724 386.001C309.822 386.095 309.921 386.19 309.921 386.19C310.02 386.284 310.119 386.378 310.119 386.473C310.217 386.567 310.315 386.661 310.315 386.756C310.512 386.756 310.61 386.85 310.71 386.945Z" fill="#485E68"/>
<path d="M310.414 404.218L295.143 412.713C294.945 412.807 294.749 412.807 294.65 412.902H294.552C294.157 412.996 293.862 413.091 293.468 413.185H293.369C292.975 413.279 292.581 413.374 292.285 413.468C291.793 413.562 291.497 413.657 291.104 413.751C290.906 413.846 290.709 413.846 290.513 413.846L312.582 401.575C312.484 401.67 312.484 401.764 312.384 401.858C312.187 402.141 312.089 402.33 311.891 402.519C311.695 402.708 311.596 402.896 311.399 403.179C311.399 403.179 311.399 403.179 311.399 403.274C311.203 403.463 311.103 403.651 310.907 403.84C310.907 403.84 310.907 403.84 310.907 403.934C310.611 404.029 310.512 404.123 310.414 404.218Z" fill="#485E68"/>
<path d="M313.37 391.193L271.695 414.412C271.497 414.412 271.3 414.412 271.202 414.318C270.61 414.223 270.019 414.129 269.526 414.035L312.877 389.871C313.074 390.154 313.173 390.438 313.272 390.815C313.272 391.004 313.37 391.098 313.37 391.193Z" fill="#485E68"/>
<path d="M281.152 414.789C280.464 414.789 279.773 414.789 279.083 414.789C278.788 414.789 278.592 414.789 278.394 414.789L314.256 394.873C314.256 394.967 314.256 395.156 314.256 395.25C314.256 395.628 314.256 396.101 314.256 396.478L281.152 414.789Z" fill="#485E68"/>
<path d="M259.379 395.628V375.241H296.522V395.628L277.999 405.822L259.379 395.628Z" fill="white"/>
<path d="M296.029 375.712V395.346L277.901 405.35L259.773 395.346V375.712H296.029ZM297.015 374.769H258.886V395.912L277.999 406.484L297.114 395.912L297.015 374.769Z" fill="#485E68"/>
<path d="M277.999 384.113C277.211 384.113 276.522 383.924 275.931 383.546L259.969 374.674L278.098 364.669L296.226 374.674L280.266 383.546C279.478 383.924 278.689 384.113 277.999 384.113Z" fill="white"/>
<path d="M277.999 365.33L295.143 374.769L279.871 383.169C279.28 383.452 278.69 383.641 277.999 383.641C277.31 383.641 276.718 383.452 276.128 383.169L260.857 374.769L277.999 365.33ZM277.999 364.197L258.886 374.769L275.635 384.018C276.325 384.397 277.211 384.586 277.999 384.586C278.788 384.586 279.675 384.397 280.364 384.018L297.114 374.769L277.999 364.197Z" fill="#485E68"/>
<path d="M294.847 355.513C311.661 355.513 325.291 342.455 325.291 326.347C325.291 310.239 311.661 297.181 294.847 297.181C278.034 297.181 264.404 310.239 264.404 326.347C264.404 342.455 278.034 355.513 294.847 355.513Z" fill="#94E0FF"/>
<path d="M278.099 320.778V383.924" stroke="#485E68" stroke-miterlimit="10"/>
<path d="M260.364 339.938C268.145 339.938 274.453 333.896 274.453 326.441C274.453 318.987 268.145 312.943 260.364 312.943C252.583 312.943 246.276 318.987 246.276 326.441C246.276 333.896 252.583 339.938 260.364 339.938Z" fill="#94E0FF"/>
<path d="M259.083 331.444L278.099 359.1" stroke="#485E68" stroke-miterlimit="10"/>
<path d="M278.099 326.441L291.399 317.853" stroke="#485E68" stroke-miterlimit="10"/>
<path d="M278.197 347.679L291.399 331.444" stroke="#485E68" stroke-miterlimit="10"/>
<path d="M400.07 339.749L405.194 336.918" stroke="#485E68" stroke-width="2" stroke-miterlimit="10"/>
<path d="M415.539 331.255L525.787 270.28C527.364 269.43 529.236 269.43 530.812 270.28L577.019 295.86C578.596 296.709 580.468 296.709 582.044 295.86L610.419 280.191" stroke="#485E68" stroke-width="2" stroke-miterlimit="10" stroke-dasharray="12.1 12.1"/>
<path d="M614.755 278.681C617.612 280.285 617.71 282.929 614.755 284.533L598.301 293.689C595.444 295.293 590.715 295.293 587.857 293.689C585.001 292.084 584.902 289.536 587.857 287.931L604.311 278.775C607.168 277.077 611.897 277.077 614.755 278.681Z" fill="#80C1DC"/>
<path d="M497.61 397.988C538.89 420.83 539.088 458.208 498.102 481.145C457.117 504.081 390.218 503.987 349.036 481.145C307.754 458.303 307.557 420.925 348.543 397.988C389.43 375.146 456.328 375.146 497.61 397.988Z" fill="white" stroke="#485E68" stroke-miterlimit="10"/>
<path d="M317.902 443.011L317.409 412.713L528.25 411.391L528.645 436.404" fill="white"/>
<path d="M317.902 443.011L317.409 412.713L528.25 411.391L528.645 436.404" stroke="#485E68" stroke-miterlimit="10"/>
<path d="M528.355 406.209C528.45 374.046 481.549 347.844 423.599 347.686C365.649 347.529 318.594 373.475 318.499 405.64C318.404 437.804 365.305 464.005 423.255 464.162C481.205 464.32 528.26 438.373 528.355 406.209Z" fill="white"/>
<path d="M497.906 364.386C539.285 387.322 539.581 424.606 498.397 447.542C457.215 470.479 390.021 470.479 348.641 447.542C307.162 424.606 306.966 387.322 348.149 364.386C389.332 341.449 456.525 341.449 497.906 364.386ZM349.332 447.07C390.416 469.818 456.919 469.818 497.708 447.07C538.497 424.323 538.3 387.416 497.215 364.763C456.131 342.015 389.628 342.015 348.839 364.763C308.05 387.416 308.247 424.417 349.332 447.07Z" fill="#485E68"/>
<path d="M451.501 351.076C452.387 351.453 453.373 351.265 454.357 351.076C458.2 350.51 463.028 351.359 464.604 354.852C464.9 355.418 465.097 356.173 465.688 356.456C466.181 356.739 466.871 356.645 467.56 356.551C470.811 355.984 474.358 356.173 477.216 357.778C481.157 359.949 483.029 364.291 484.605 368.349C487.954 365.895 492.683 365.329 496.723 366.462C500.763 367.594 504.309 370.237 506.969 373.446C508.053 374.768 509.039 376.278 509.137 377.977C509.236 379.677 508.25 381.47 506.576 381.847C509.137 382.508 511.599 383.263 514.161 384.112C517.512 385.246 520.96 386.661 522.93 389.398C524.704 391.853 524.999 395.25 523.62 397.893C522.241 400.63 519.384 402.519 516.329 402.802" fill="white"/>
<path d="M449.137 351.643C450.713 352.209 452.486 351.549 454.062 351.549C455.638 351.549 457.314 351.738 458.791 352.398C460.368 353.059 461.254 354.191 461.944 355.607C462.535 356.929 463.521 357.401 464.9 357.212C468.939 356.646 473.175 356.739 476.328 359.666C478.89 362.025 480.269 365.424 481.55 368.539C481.649 368.822 482.141 369.105 482.437 368.916C487.166 365.612 493.374 366.084 498.201 368.822C500.566 370.143 502.635 372.031 504.211 374.108C505.689 376.09 507.462 380.337 503.915 381.375C503.324 381.564 503.324 382.319 503.915 382.508C506.97 383.263 509.925 384.112 512.881 385.246C515.443 386.189 518.201 387.511 519.877 389.777C523.423 394.778 519.975 401.669 513.768 402.33C512.98 402.424 512.98 403.557 513.768 403.557C520.172 402.896 524.309 396.478 521.748 390.72C520.467 387.982 517.905 386.189 515.147 384.963C511.699 383.452 507.955 382.414 504.31 381.47C504.31 381.847 504.31 382.225 504.31 382.602C507.265 381.753 507.856 378.543 506.872 376.09C505.689 373.257 503.029 370.709 500.467 368.916C495.146 365.14 487.462 364.102 481.846 367.973C482.141 368.067 482.437 368.161 482.732 368.35C481.452 365.235 480.171 361.931 477.709 359.477C475.047 356.739 471.403 355.701 467.56 355.89C466.674 355.89 465.787 356.079 464.9 356.173C463.816 356.362 463.323 356.079 462.93 355.135C462.732 354.758 462.634 354.474 462.437 354.191C461.747 352.964 460.565 352.115 459.284 351.549C457.905 350.983 456.427 350.604 454.95 350.604C453.176 350.51 451.008 351.266 449.333 350.793C448.742 350.321 448.348 351.453 449.137 351.643Z" fill="#485E68"/>
<path d="M405.195 327.007C405.785 331.538 406.967 335.975 408.84 340.127L405.195 327.007Z" fill="white"/>
<path d="M404.603 327.007C405.195 331.538 406.476 336.069 408.249 340.316C408.544 340.977 409.727 340.693 409.432 340.032C407.658 335.88 406.476 331.538 405.786 327.007C405.688 326.252 404.505 326.252 404.603 327.007Z" fill="#485E68"/>
<path d="M437.018 324.741C437.018 329.461 437.018 334.181 436.032 338.712C435.737 339.938 435.441 341.165 435.835 342.393" fill="white"/>
<path d="M436.328 324.742C436.328 327.857 436.328 330.878 436.032 333.992C435.934 335.503 435.639 337.013 435.343 338.617C435.047 339.938 434.751 341.261 435.146 342.582C435.343 343.337 436.525 342.959 436.328 342.299C435.835 340.883 436.427 339.372 436.722 337.957C437.018 336.541 437.116 335.124 437.313 333.709C437.609 330.783 437.609 327.762 437.609 324.837C437.609 323.988 436.328 323.986 436.328 324.742Z" fill="#485E68"/>
<path d="M412.978 361.649C412.978 362.97 412.879 364.386 412.879 365.707C412.879 367.407 412.78 369.105 412.189 370.71C411.697 372.032 410.908 373.259 410.12 374.485C407.264 378.733 404.406 383.074 400.367 386.378" fill="white"/>
<path d="M412.387 361.648C412.289 364.103 412.485 366.651 411.992 369.105C411.599 371.465 410.022 373.448 408.741 375.524C406.179 379.3 403.519 382.98 399.973 385.907C399.382 386.379 400.268 387.228 400.859 386.756C404.604 383.641 407.46 379.771 410.12 375.807C411.401 373.825 412.88 371.842 413.273 369.483C413.766 366.934 413.668 364.291 413.668 361.648C413.569 360.893 412.387 360.893 412.387 361.648Z" fill="#485E68"/>
<path d="M432.19 359.289C432.584 364.48 433.372 369.672 434.653 374.769C435.146 376.656 435.639 378.544 436.623 380.243C439.776 386.095 447.067 389.022 453.964 389.494" fill="white"/>
<path d="M431.5 359.289C431.795 363.348 432.386 367.406 433.175 371.465C433.963 375.146 434.751 379.015 437.018 382.131C440.859 387.322 447.56 389.587 453.864 390.059C454.653 390.153 454.653 388.926 453.864 388.832C447.756 388.36 441.156 386.001 437.706 380.904C435.737 377.977 435.046 374.296 434.357 370.898C433.569 367.028 432.978 363.158 432.781 359.289C432.683 358.534 431.5 358.534 431.5 359.289Z" fill="#485E68"/>
<path d="M495.639 371.181C497.61 372.125 499.087 373.919 499.778 375.995C500.368 377.977 500.171 380.243 499.087 382.131" fill="white"/>
<path d="M495.343 371.653C499.087 373.635 500.566 378.166 498.594 381.753C498.201 382.414 499.284 382.98 499.678 382.319C501.945 378.166 500.368 372.88 496.034 370.615C495.245 370.332 494.654 371.276 495.343 371.653Z" fill="#485E68"/>
<path d="M358.79 400.159C360.563 400.442 367.263 409.22 387.756 404.973C387.756 404.973 396.229 414.789 412.978 406.105" fill="white"/>
<path d="M358.593 400.725C358.986 400.819 359.774 401.385 360.169 401.67C361.253 402.425 362.336 403.085 363.518 403.651C367.361 405.633 371.795 406.484 376.13 406.672C380.071 406.767 384.012 406.295 387.854 405.444C387.657 405.35 387.46 405.35 387.263 405.256C388.937 407.144 391.597 408.465 393.962 409.22C400.465 411.296 407.362 409.503 413.175 406.484C413.864 406.105 413.273 405.067 412.584 405.444C406.967 408.277 400.268 410.07 394.061 407.993C391.894 407.239 389.627 406.105 388.149 404.406C388.051 404.218 387.755 404.218 387.558 404.218C378.396 406.105 368.839 405.916 360.957 400.63C360.366 400.253 359.676 399.592 358.986 399.498C358.198 399.404 357.804 400.536 358.593 400.725Z" fill="#485E68"/>
<path d="M343.026 393.268C343.026 393.268 313.567 380.243 314.356 406.389C314.454 409.786 315.537 412.996 317.509 415.827C321.745 421.774 330.809 431.213 345.095 428.003C345.095 428.003 347.164 449.618 378.888 438.575C378.888 438.575 393.469 456.415 414.16 446.127C414.16 446.127 442.24 471.517 459.382 442.728C459.382 442.728 475.344 459.907 491.993 433.479C492.881 432.062 494.555 431.402 496.23 431.873C504.407 433.762 528.152 437.254 532.191 413.468C532.191 413.468 531.6 392.325 507.363 401.292" fill="white"/>
<path d="M343.321 392.702C341.154 391.759 338.789 391.004 336.523 390.437C332.286 389.398 327.656 388.832 323.42 389.966C318.493 391.287 315.341 395.063 314.256 399.781C313.37 403.652 313.37 407.899 314.651 411.581C315.833 414.978 318.099 417.905 320.661 420.547C323.42 423.474 326.77 425.927 330.612 427.437C335.243 429.326 340.268 429.514 345.193 428.382C344.898 428.192 344.7 428.003 344.405 427.815C344.602 430.269 345.686 432.817 347.164 434.895C350.415 439.614 355.933 441.879 361.746 442.162C367.657 442.445 373.47 440.935 378.987 439.047C378.79 438.953 378.593 438.953 378.396 438.858C380.169 441.03 382.436 442.917 384.8 444.427C389.726 447.826 395.638 449.902 401.746 449.713C406.179 449.619 410.515 448.392 414.456 446.41C414.161 446.41 413.963 446.316 413.668 446.316C416.821 449.147 420.663 451.601 424.604 453.395C431.598 456.699 439.875 458.209 447.165 454.905C452.781 452.451 456.821 447.731 459.777 442.729C459.481 442.729 459.087 442.823 458.791 442.823C462.437 446.693 468.348 449.052 473.767 448.392C479.58 447.637 484.408 443.767 487.954 439.52C489.333 437.82 490.614 436.122 491.797 434.328C492.881 432.629 494.162 431.779 496.329 432.251C497.906 432.629 499.58 432.912 501.157 433.101C509.827 434.234 519.581 433.289 525.985 426.965C527.857 425.078 529.334 422.906 530.419 420.453C531.403 418.282 532.487 415.544 532.586 413.091C532.684 411.391 532.093 409.504 531.502 407.899C530.419 404.878 528.645 402.142 525.886 400.349C521.846 397.799 516.724 397.894 512.192 398.838C510.418 399.215 508.644 399.781 506.97 400.442C506.279 400.726 506.576 401.858 507.265 401.575C512.192 399.781 518.103 398.271 523.226 400.349C526.378 401.575 528.547 404.123 529.827 407.05C530.615 408.843 531.207 410.919 531.305 412.902C531.403 414.506 530.714 416.205 530.221 417.716C529.334 420.264 528.054 422.812 526.28 424.889C520.565 431.685 511.108 433.101 502.536 432.157C500.861 431.968 499.285 431.685 497.61 431.402C495.344 430.93 492.979 430.553 491.403 432.629C490.023 434.328 489.038 436.216 487.659 437.915C486.575 439.33 485.294 440.652 484.013 441.879C481.945 443.767 479.58 445.466 476.821 446.504C470.713 448.769 464.309 446.599 459.777 442.445C459.678 442.351 459.579 442.257 459.481 442.162C459.186 441.879 458.693 441.974 458.496 442.257C455.836 446.693 452.289 450.941 447.461 453.395C443.914 455.188 439.973 455.944 436.032 455.565C429.333 454.999 423.027 451.979 417.707 448.203C416.525 447.354 415.244 446.504 414.161 445.466C413.963 445.278 413.668 445.278 413.372 445.372C406.869 448.581 399.579 449.43 392.583 447.165C388.149 445.655 384.11 443.106 380.761 439.897C380.071 439.237 379.381 438.575 378.79 437.915C378.692 437.726 378.396 437.726 378.199 437.726C370.612 440.369 361.056 442.729 353.469 438.953C349.725 437.16 347.065 433.857 345.784 429.986C345.588 429.42 345.391 428.854 345.292 428.192C345.193 427.815 345.193 427.72 345.193 427.626C345.193 427.249 344.8 426.965 344.405 427.06C336.227 428.854 328.444 426.399 322.533 420.925C320.169 418.754 318.001 416.299 316.523 413.468C314.454 409.692 314.158 405.256 314.749 401.103C315.439 396.478 318.001 392.514 322.73 391.004C326.671 389.777 331.006 390.249 334.947 391.192C337.41 391.759 339.971 392.514 342.14 393.457C343.421 394.024 344.011 393.08 343.321 392.702Z" fill="#485E68"/>
<path d="M358.79 400.159C360.563 400.442 367.263 409.22 387.756 404.973C387.756 404.973 396.229 414.789 412.978 406.105" fill="white"/>
<path d="M358.593 400.725C358.986 400.819 359.774 401.385 360.169 401.67C361.253 402.425 362.336 403.085 363.518 403.651C367.361 405.633 371.795 406.484 376.13 406.672C380.071 406.767 384.012 406.295 387.854 405.444C387.657 405.35 387.46 405.35 387.263 405.256C388.937 407.144 391.597 408.465 393.962 409.22C400.465 411.296 407.362 409.503 413.175 406.484C413.864 406.105 413.273 405.067 412.584 405.444C406.967 408.277 400.268 410.07 394.061 407.993C391.894 407.239 389.627 406.105 388.149 404.406C388.051 404.218 387.755 404.218 387.558 404.218C378.396 406.105 368.839 405.916 360.957 400.63C360.366 400.253 359.676 399.592 358.986 399.498C358.198 399.404 357.804 400.536 358.593 400.725Z" fill="#485E68"/>
<path d="M433.963 408.371C435.539 408.371 443.717 417.527 460.959 409.126C460.959 409.126 470.91 419.131 483.817 406.295" fill="white"/>
<path d="M433.963 409.032C433.963 409.032 434.062 409.032 434.16 409.126C434.358 409.22 434.555 409.315 434.751 409.503C435.343 409.787 435.835 410.164 436.427 410.447C438.101 411.391 439.973 412.147 441.845 412.619C448.446 414.317 455.343 412.524 461.254 409.692C460.958 409.692 460.762 409.598 460.466 409.598C462.339 411.391 464.999 412.713 467.56 413.185C473.963 414.506 479.876 411.013 484.21 406.767C484.801 406.199 483.915 405.35 483.324 405.916C479.186 409.975 473.57 413.374 467.462 411.958C465.294 411.485 462.93 410.353 461.353 408.748C461.156 408.56 460.86 408.56 460.565 408.654C454.654 411.485 447.756 413.279 441.254 411.202C439.58 410.636 437.904 409.881 436.427 409.032C435.737 408.56 434.85 407.805 433.865 407.805C433.175 407.805 433.175 408.937 433.963 409.032Z" fill="#485E68"/>
<path d="M354.75 384.867C358.297 383.074 362.139 382.036 366.08 381.942C368.248 381.847 370.317 382.13 372.091 383.452C373.372 384.49 374.455 385.718 375.736 386.756C378.1 388.549 381.057 389.776 384.012 389.776C387.066 389.776 389.825 388.171 391.598 385.811C393.569 383.169 394.652 379.959 395.539 376.939C396.622 373.257 397.214 369.483 397.51 365.707C398.101 357.966 397.214 350.227 395.736 342.582C394.948 338.334 394.16 333.897 392.583 329.838C391.401 326.913 388.445 322.759 385.884 319.55C385.489 319.078 384.11 319.644 384.603 320.117C386.869 322.948 389.233 325.78 390.711 328.989C392.288 332.387 392.978 336.162 393.667 339.844C395.243 347.3 396.426 354.946 396.229 362.686C396.031 369.766 394.948 377.316 391.5 383.735C389.923 386.756 387.361 389.209 383.519 388.926C380.071 388.737 377.214 386.756 374.849 384.49C373.667 383.357 372.484 382.225 370.908 381.659C369.233 380.998 367.263 381.092 365.39 381.187C361.351 381.375 357.509 382.414 353.962 384.207C353.273 384.584 354.061 385.245 354.75 384.867Z" fill="#485E68"/>
<path d="M463.028 318.795C457.51 322.665 454.457 329.367 452.092 335.313C449.333 342.203 447.756 349.376 447.067 356.739C446.772 360.231 446.574 363.63 446.772 367.122C446.87 369.954 447.165 372.974 448.249 375.617C449.235 378.072 450.909 380.336 453.373 381.658C456.131 383.169 459.382 383.169 462.535 382.697C466.476 382.131 470.417 380.714 474.456 380.714C476.328 380.714 478.397 381.091 479.678 382.508C480.86 383.735 481.353 385.434 482.732 386.566C483.127 386.849 484.506 386.377 484.013 386C482.929 385.15 482.339 383.924 481.55 382.791C480.762 381.658 479.679 380.903 478.398 380.431C475.639 379.487 472.486 379.959 469.629 380.525C466.083 381.186 462.535 382.224 458.989 382.035C455.638 381.846 452.781 380.336 450.909 377.694C447.56 372.691 447.954 365.8 448.249 360.137C448.644 353.058 449.825 346.073 451.993 339.372C453.274 335.502 454.85 331.726 456.722 328.14C458.496 324.836 460.663 321.533 463.914 319.267C464.702 318.701 463.521 318.512 463.028 318.795Z" fill="#485E68"/>
<path d="M396.82 348.907C396.82 349.001 397.017 349.756 397.017 349.756L448.053 349.567L448.446 347.773C448.446 347.773 411.894 341.732 397.608 347.773L396.82 348.907Z" fill="white"/>
<path d="M445.589 269.997C445.589 269.997 435.441 295.764 450.023 321.344C450.023 321.344 468.446 298.313 458.989 269.997H445.589Z" fill="#94E0FF"/>
<path d="M448.84 269.996L451.599 300.295L456.229 269.996H448.84Z" fill="#0135AF"/>
<path d="M393.076 272.167C393.076 272.167 383.717 295.86 397.214 319.268C397.214 319.268 414.161 298.125 405.49 272.167H393.076Z" fill="#94E0FF"/>
<path d="M396.031 272.167L398.593 299.918L402.83 272.167H396.031Z" fill="#0135AF"/>
<path d="M460.663 184.857L460.565 257.442C460.565 259.33 459.284 261.124 456.821 262.445C451.697 265.276 443.52 265.276 438.397 262.445C435.835 261.03 434.555 259.141 434.555 257.348V184.763C434.555 186.65 435.835 188.445 438.397 189.86C443.52 192.691 451.697 192.691 456.821 189.86C459.382 188.539 460.663 186.651 460.663 184.857Z" fill="white"/>
<path d="M460.663 184.858L460.565 257.443C460.565 258.67 459.973 259.897 458.889 260.935V188.35C459.973 187.312 460.663 186.085 460.663 184.858Z" fill="white" stroke="#485E68" stroke-miterlimit="10"/>
<path d="M458.889 188.35V260.935C458.298 261.501 457.609 261.973 456.821 262.445C456.033 262.917 454.948 263.294 453.964 263.673V191.087C454.948 190.804 455.934 190.332 456.821 189.86C457.707 189.388 458.298 188.916 458.889 188.35Z" fill="white" stroke="#485E68" stroke-miterlimit="10"/>
<path d="M453.964 191.087V263.673C451.697 264.428 449.234 264.617 446.772 264.522V191.937C449.234 192.126 451.697 191.843 453.964 191.087Z" fill="white" stroke="#485E68" stroke-miterlimit="10"/>
<path d="M446.772 191.937V264.522C444.505 264.428 442.239 264.05 440.269 263.201V190.616C442.239 191.465 444.505 191.937 446.772 191.937Z" fill="white" stroke="#485E68" stroke-miterlimit="10"/>
<path d="M440.269 190.804V263.389C439.578 263.106 438.988 262.823 438.397 262.54C435.835 261.124 434.555 259.236 434.555 257.442V184.763C434.555 186.65 435.835 188.445 438.397 189.86C438.988 190.238 439.578 190.521 440.269 190.804Z" fill="white" stroke="#485E68" stroke-miterlimit="10"/>
<path d="M460.663 184.857L460.565 257.442C460.565 259.33 459.284 261.124 456.821 262.445C451.697 265.276 443.52 265.276 438.397 262.445C435.835 261.03 434.555 259.141 434.555 257.348V184.763C434.555 186.65 435.835 188.445 438.397 189.86C443.52 192.691 451.697 192.691 456.821 189.86C459.382 188.539 460.663 186.651 460.663 184.857Z" stroke="#485E68" stroke-miterlimit="10"/>
<path d="M456.722 179.761C461.944 182.687 461.944 187.029 456.821 189.955C451.697 192.787 443.52 192.787 438.397 189.955C433.274 187.123 433.274 182.592 438.299 179.761C443.422 176.929 451.697 176.929 456.722 179.761Z" fill="white" stroke="#485E68" stroke-miterlimit="10"/>
<path fill-rule="evenodd" clip-rule="evenodd" d="M460.664 185.613C460.369 172.398 454.063 155.691 447.659 155.691C441.255 155.691 434.752 172.398 434.556 185.613C435.738 189.294 441.156 192.032 447.561 192.032C454.162 192.126 459.58 189.294 460.664 185.613Z" fill="white" stroke="#485E68" stroke-miterlimit="10"/>
<path d="M415.637 184.857L415.539 257.442C415.539 259.33 414.258 261.124 411.796 262.445C406.673 265.276 398.495 265.276 393.371 262.445C390.81 261.03 389.529 259.141 389.529 257.348V184.763C389.529 186.65 390.81 188.445 393.371 189.86C398.495 192.691 406.673 192.691 411.796 189.86C414.16 188.539 415.637 186.651 415.637 184.857Z" fill="white"/>
<path d="M415.638 184.858L415.54 257.443C415.54 258.67 414.948 259.897 413.864 260.935V188.35C414.85 187.312 415.638 186.085 415.638 184.858Z" fill="white" stroke="#485E68" stroke-miterlimit="10"/>
<path d="M413.765 188.35V260.935C413.175 261.501 412.485 261.973 411.696 262.445C410.908 262.917 409.824 263.294 408.839 263.673V191.087C409.824 190.804 410.81 190.332 411.696 189.86C412.584 189.388 413.175 188.916 413.765 188.35Z" fill="white" stroke="#485E68" stroke-miterlimit="10"/>
<path d="M408.839 191.087V263.673C406.574 264.428 404.11 264.617 401.647 264.522V191.937C404.11 192.126 406.574 191.843 408.839 191.087Z" fill="white" stroke="#485E68" stroke-miterlimit="10"/>
<path d="M401.647 191.937V264.522C399.382 264.428 397.115 264.05 395.145 263.201V190.616C397.017 191.465 399.283 191.937 401.647 191.937Z" fill="white" stroke="#485E68" stroke-miterlimit="10"/>
<path d="M395.145 190.804V263.389C394.455 263.106 393.864 262.823 393.273 262.54C390.711 261.124 389.43 259.236 389.43 257.442V184.763C389.43 186.65 390.711 188.445 393.273 189.86C393.864 190.238 394.455 190.521 395.145 190.804Z" fill="white" stroke="#485E68" stroke-miterlimit="10"/>
<path d="M415.637 184.857L415.539 257.442C415.539 259.33 414.258 261.124 411.796 262.445C406.673 265.276 398.495 265.276 393.371 262.445C390.81 261.03 389.529 259.141 389.529 257.348V184.763C389.529 186.65 390.81 188.445 393.371 189.86C398.495 192.691 406.673 192.691 411.796 189.86C414.16 188.539 415.637 186.651 415.637 184.857Z" stroke="#485E68" stroke-miterlimit="10"/>
<path d="M411.598 179.761C416.82 182.687 416.82 187.029 411.696 189.955C406.574 192.787 398.396 192.787 393.273 189.955C388.149 187.123 388.149 182.592 393.174 179.761C398.298 176.929 406.474 176.929 411.598 179.761Z" fill="white" stroke="#485E68" stroke-miterlimit="10"/>
<path fill-rule="evenodd" clip-rule="evenodd" d="M415.639 185.613C415.342 172.398 409.037 155.691 402.632 155.691C396.229 155.691 389.727 172.398 389.529 185.613C390.711 189.294 396.13 192.032 402.534 192.032C409.037 192.126 414.456 189.294 415.639 185.613Z" fill="white" stroke="#485E68" stroke-miterlimit="10"/>
<path d="M446.771 181.837L446.574 249.704C446.574 252.629 444.505 255.65 440.366 257.915C432.091 262.446 418.692 262.446 410.415 257.915C406.278 255.556 404.111 252.535 404.111 249.61L404.307 181.743C404.307 184.764 406.376 187.879 410.613 190.05C418.888 194.581 432.288 194.581 440.564 190.05C444.8 187.879 446.771 184.953 446.771 181.837Z" fill="#37404A"/>
<path d="M446.772 181.838L446.574 249.704C446.574 251.686 445.688 253.668 443.815 255.462L444.012 187.595C445.884 185.897 446.772 183.915 446.772 181.838Z" fill="#37404A"/>
<path d="M444.012 187.69L443.815 255.555C442.929 256.406 441.845 257.255 440.466 258.01C439.087 258.765 437.411 259.425 435.835 259.897L436.032 192.032C437.707 191.56 439.283 190.805 440.663 190.144C442.043 189.388 443.126 188.633 444.012 187.69Z" fill="#37404A"/>
<path d="M436.032 192.126L435.835 259.992C432.19 261.124 428.15 261.596 424.111 261.407L424.308 193.542C428.347 193.731 432.386 193.259 436.032 192.126Z" fill="#37404A"/>
<path d="M424.308 193.542L424.111 261.407C420.367 261.219 416.722 260.652 413.471 259.425L413.668 191.56C416.919 192.787 420.663 193.447 424.308 193.542Z" fill="#37404A"/>
<path d="M413.668 191.467L413.47 259.332C412.387 258.954 411.499 258.483 410.415 258.011C406.278 255.65 404.11 252.631 404.11 249.704L404.307 181.839C404.307 184.858 406.376 187.974 410.613 190.144C411.696 190.711 412.682 191.088 413.668 191.467Z" fill="#37404A"/>
<path d="M440.663 173.532C448.939 178.063 449.037 185.519 440.761 190.144C432.485 194.674 419.086 194.674 410.81 190.144C402.534 185.613 402.435 178.156 410.711 173.532C418.888 169.001 432.288 169.001 440.663 173.532Z" fill="#37404A"/>
<path d="M448.84 158.712L448.544 232.996C448.544 236.3 446.279 239.604 441.845 242.058C432.781 247.06 418.2 247.06 409.036 242.058C404.406 239.51 402.14 236.206 402.14 232.902L402.435 158.618C402.435 161.922 404.702 165.225 409.332 167.774C418.495 172.777 433.076 172.777 442.14 167.774C446.574 165.225 448.84 162.015 448.84 158.712Z" fill="white"/>
<path d="M448.84 158.712L448.544 232.996C448.544 236.3 446.279 239.604 441.845 242.058C432.781 247.06 418.2 247.06 409.036 242.058C404.406 239.51 402.14 236.206 402.14 232.902L402.435 158.618C402.435 161.922 404.702 165.225 409.332 167.774C418.495 172.777 433.076 172.777 442.14 167.774C446.574 165.225 448.84 162.015 448.84 158.712Z" stroke="#485E68" stroke-miterlimit="10"/>
<path d="M442.043 149.556C451.207 154.559 451.206 162.676 442.143 167.773C433.077 172.776 418.496 172.776 409.334 167.773C400.171 162.77 400.171 154.653 409.235 149.556C418.3 144.459 432.881 144.553 442.043 149.556Z" fill="white" stroke="#485E68" stroke-miterlimit="10"/>
<path d="M445.688 135.492L445.589 157.296C445.589 160.128 443.619 162.959 439.776 165.13C431.894 169.472 419.184 169.472 411.303 165.13C407.362 162.959 405.391 160.128 405.391 157.201L405.49 135.397C405.49 138.324 407.46 141.155 411.401 143.327C419.284 147.669 431.993 147.669 439.875 143.327C443.815 141.155 445.688 138.418 445.688 135.492Z" fill="#485E68"/>
<path d="M445.688 135.492L445.589 157.296C445.589 160.128 443.619 162.959 439.776 165.13C431.894 169.472 419.184 169.472 411.303 165.13C407.362 162.959 405.391 160.128 405.391 157.201L405.49 135.397C405.49 138.324 407.46 141.155 411.401 143.327C419.284 147.669 431.993 147.669 439.875 143.327C443.815 141.155 445.688 138.418 445.688 135.492Z" fill="#485E68"/>
<path d="M445.687 135.492L445.589 157.296C445.589 157.673 445.491 158.145 445.392 158.617L445.491 136.813C445.687 136.341 445.687 135.964 445.687 135.492Z" fill="#485E68"/>
<path d="M445.589 136.814L445.491 158.618C444.998 160.977 443.126 163.149 440.071 165.036L440.17 143.232C443.323 141.439 445.096 139.079 445.589 136.814Z" fill="#485E68"/>
<path d="M435.539 145.215L435.441 167.019C431.598 168.246 427.066 168.623 422.83 168.34L422.929 146.536C427.165 146.914 431.598 146.347 435.539 145.215Z" fill="#485E68"/>
<path d="M422.929 146.441L422.831 168.245C418.693 167.962 414.654 166.924 411.501 165.13C407.56 162.959 405.59 160.128 405.59 157.201L405.688 135.397C405.688 138.324 407.658 141.155 411.599 143.327C414.654 145.12 418.693 146.158 422.929 146.441Z" fill="#485E68"/>
<path d="M439.777 127.563C447.658 131.906 447.758 138.985 439.875 143.327C431.993 147.669 419.284 147.669 411.401 143.327C403.52 138.985 403.421 131.906 411.303 127.563C419.185 123.221 431.895 123.221 439.777 127.563Z" fill="#485E68"/>
<path d="M446.475 209.681C445.491 210.626 444.21 211.569 442.731 212.419C433.372 217.61 418.2 217.61 408.741 212.419C407.263 211.569 405.884 210.626 404.899 209.587C403.716 208.454 402.928 207.227 402.435 206.095V213.174V219.309C403.421 221.668 405.588 223.84 408.839 225.727C418.2 230.919 433.47 230.919 442.831 225.727C445.786 224.123 447.658 222.235 448.742 220.158V212.513V206.755C448.151 207.794 447.363 208.737 446.475 209.681Z" fill="#94E0FF"/>
<path d="M460.663 199.205L460.565 271.79C460.565 273.677 459.284 275.471 456.821 276.793C451.697 279.625 443.52 279.625 438.397 276.793C435.835 275.377 434.555 273.489 434.555 271.695V199.11C434.555 200.998 435.835 202.792 438.397 204.208C443.52 207.039 451.697 207.039 456.821 204.208C459.382 202.886 460.663 200.998 460.663 199.205Z" fill="white"/>
<path d="M460.663 199.205L460.565 271.79C460.565 273.677 459.284 275.471 456.821 276.793C451.697 279.625 443.52 279.625 438.397 276.793C435.835 275.377 434.555 273.489 434.555 271.695V199.11C434.555 200.998 435.835 202.792 438.397 204.208C443.52 207.039 451.697 207.039 456.821 204.208C459.382 202.886 460.663 200.998 460.663 199.205Z" stroke="#485E68" stroke-miterlimit="10"/>
<path d="M456.722 194.108C461.944 197.034 461.944 201.376 456.821 204.302C451.697 207.134 443.52 207.134 438.397 204.302C433.274 201.471 433.274 196.94 438.299 194.108C443.422 191.276 451.697 191.276 456.722 194.108Z" fill="white" stroke="#485E68" stroke-miterlimit="10"/>
<path fill-rule="evenodd" clip-rule="evenodd" d="M460.664 200.054C460.369 186.84 454.063 170.133 447.659 170.133C441.255 170.133 434.752 186.84 434.556 200.054C435.738 203.736 441.156 206.472 447.561 206.472C454.162 206.472 459.58 203.736 460.664 200.054Z" fill="white" stroke="#485E68" stroke-miterlimit="10"/>
<path d="M415.638 199.205L415.54 271.79C415.54 273.677 414.259 275.471 411.796 276.793C406.672 279.625 398.494 279.625 393.371 276.793C390.809 275.377 389.528 273.489 389.528 271.695V199.11C389.528 200.998 390.809 202.792 393.371 204.208C398.494 207.039 406.672 207.039 411.796 204.208C414.159 202.886 415.638 200.998 415.638 199.205Z" fill="white"/>
<path d="M415.638 199.205L415.54 271.79C415.54 273.677 414.259 275.471 411.796 276.793C406.672 279.625 398.494 279.625 393.371 276.793C390.809 275.377 389.528 273.489 389.528 271.695V199.11C389.528 200.998 390.809 202.792 393.371 204.208C398.494 207.039 406.672 207.039 411.796 204.208C414.159 202.886 415.638 200.998 415.638 199.205Z" stroke="#485E68" stroke-miterlimit="10"/>
<path d="M411.598 194.108C416.82 197.034 416.82 201.376 411.696 204.302C406.574 207.134 398.396 207.134 393.273 204.302C388.149 201.471 388.149 196.94 393.174 194.108C398.298 191.276 406.474 191.276 411.598 194.108Z" fill="white" stroke="#485E68" stroke-miterlimit="10"/>
<path fill-rule="evenodd" clip-rule="evenodd" d="M415.639 200.054C415.342 186.84 409.037 170.133 402.632 170.133C396.229 170.133 389.727 186.84 389.529 200.054C390.711 203.736 396.13 206.472 402.534 206.472C409.037 206.472 414.456 203.736 415.639 200.054Z" fill="white" stroke="#485E68" stroke-miterlimit="10"/>
<path d="M447.856 74.8015L447.56 145.876C447.56 148.991 445.392 152.107 441.155 154.56C432.584 159.374 418.495 159.374 409.825 154.56C405.49 152.201 403.323 148.991 403.323 145.782L403.618 74.7075C403.618 77.916 405.786 81.0317 410.12 83.485C418.791 88.2989 432.879 88.2989 441.452 83.485C445.688 81.0317 447.856 77.916 447.856 74.8015Z" fill="white"/>
<path d="M444.998 80.8415C446.968 78.9531 447.953 76.8768 447.953 74.7053L447.658 145.78C447.658 147.858 446.672 149.934 444.702 151.916" fill="white"/>
<path d="M444.998 80.8415C446.968 78.9531 447.953 76.8768 447.953 74.7053L447.658 145.78C447.658 147.858 446.672 149.934 444.702 151.916" stroke="#485E68" stroke-miterlimit="10"/>
<path d="M436.623 85.4664C438.397 84.9003 439.973 84.2391 441.451 83.39C442.83 82.6349 444.012 81.6907 444.998 80.8416" fill="white"/>
<path d="M436.623 85.4664C438.397 84.9003 439.973 84.2391 441.451 83.39C442.83 82.6349 444.012 81.6907 444.998 80.8416" stroke="#485E68" stroke-miterlimit="10"/>
<path d="M444.801 151.917C443.914 152.766 442.731 153.71 441.254 154.465C439.776 155.22 438.199 155.975 436.427 156.541" fill="white"/>
<path d="M444.801 151.917C443.914 152.766 442.731 153.71 441.254 154.465C439.776 155.22 438.199 155.975 436.427 156.541" stroke="#485E68" stroke-miterlimit="10"/>
<path d="M436.328 156.542C432.584 157.769 428.347 158.241 424.013 158.052L436.328 156.542Z" fill="white"/>
<path d="M436.328 156.542C432.584 157.769 428.347 158.241 424.013 158.052" stroke="#485E68" stroke-miterlimit="10"/>
<path d="M424.308 86.976C428.445 87.165 432.879 86.6929 436.623 85.4668L424.308 86.976Z" fill="white"/>
<path d="M424.308 86.976C428.445 87.165 432.879 86.6929 436.623 85.4668" stroke="#485E68" stroke-miterlimit="10"/>
<path d="M413.175 84.8059C416.524 86.1271 420.367 86.7883 424.308 86.9774L413.175 84.8059Z" fill="white"/>
<path d="M413.175 84.8059C416.524 86.1271 420.367 86.7883 424.308 86.9774" stroke="#485E68" stroke-miterlimit="10"/>
<path d="M424.111 158.052C420.17 157.863 416.328 157.202 412.978 155.881L424.111 158.052Z" fill="white"/>
<path d="M424.111 158.052C420.17 157.863 416.328 157.202 412.978 155.881" stroke="#485E68" stroke-miterlimit="10"/>
<path d="M412.977 155.88C411.894 155.503 410.81 155.031 409.924 154.465C405.589 152.105 403.421 148.896 403.421 145.686L403.717 74.6116C403.717 77.8212 405.885 80.9357 410.219 83.3891C411.205 83.9563 412.19 84.4284 413.274 84.8054" fill="white"/>
<path d="M412.977 155.88C411.894 155.503 410.81 155.031 409.924 154.465C405.589 152.105 403.421 148.896 403.421 145.686L403.717 74.6116C403.717 77.8212 405.885 80.9357 410.219 83.3891C411.205 83.9563 412.19 84.4284 413.274 84.8054" stroke="#485E68" stroke-miterlimit="10"/>
<path d="M447.856 74.8015L447.56 145.876C447.56 148.991 445.392 152.107 441.155 154.56C432.584 159.374 418.495 159.374 409.825 154.56C405.49 152.201 403.323 148.991 403.323 145.782L403.618 74.7075C403.618 77.916 405.786 81.0317 410.12 83.485C418.791 88.2989 432.879 88.2989 441.452 83.485C445.688 81.0317 447.856 77.916 447.856 74.8015Z" stroke="#485E68" stroke-miterlimit="10"/>
<path d="M441.354 66.022C450.024 70.8359 450.024 78.5752 441.453 83.3891C432.881 88.203 418.792 88.203 410.122 83.3891C401.452 78.5752 401.452 70.8359 410.023 66.022C418.595 61.2082 432.684 61.2082 441.354 66.022Z" fill="white" stroke="#485E68" stroke-miterlimit="10"/>
<path d="M444.619 37.571L444.42 76.7612C444.42 78.4889 442.526 80.2174 438.936 81.5129C431.559 84.1667 419.596 84.1667 412.219 81.5129C408.53 80.2174 406.636 78.4275 406.636 76.699L406.836 37.5093C406.836 39.2374 408.73 41.0271 412.418 42.3232C419.895 44.977 431.759 44.977 439.136 42.3232C442.724 41.0271 444.519 39.2991 444.619 37.571Z" fill="white"/>
<path d="M441.943 18.544C443.519 16.9395 444.407 15.146 444.407 13.447L444.21 73.3842C444.21 75.1775 443.421 76.8768 441.747 78.4811" fill="white"/>
<path d="M441.842 35.4396C443.619 34.2812 444.62 32.9864 444.62 31.7598L444.397 75.0321C444.397 76.3268 443.509 77.5537 441.621 78.7119" stroke="#485E68" stroke-miterlimit="10"/>
<path d="M434.948 22.4139C436.427 21.9419 437.806 21.3756 439.087 20.6205C440.269 19.9597 441.254 19.299 442.141 18.4495" fill="white"/>
<path d="M434.948 22.4139C436.427 21.9419 437.806 21.3756 439.087 20.6205C440.269 19.9597 441.254 19.299 442.141 18.4495" stroke="#485E68" stroke-miterlimit="10"/>
<path d="M441.747 78.4807C440.959 79.2359 439.973 79.991 438.692 80.6522C437.411 81.4073 436.13 81.9734 434.555 82.4455" fill="white"/>
<path d="M441.747 78.4807C440.959 79.2359 439.973 79.991 438.692 80.6522C437.411 81.4073 436.13 81.9734 434.555 82.4455" stroke="#485E68" stroke-miterlimit="10"/>
<path d="M424.604 23.7355C428.249 23.9243 431.796 23.4523 434.949 22.4141L424.604 23.7355Z" fill="white"/>
<path d="M424.604 23.7355C428.249 23.9243 431.796 23.4523 434.949 22.4141" stroke="#485E68" stroke-miterlimit="10"/>
<path d="M434.653 82.4463C431.5 83.3894 427.854 83.8615 424.308 83.7675L434.653 82.4463Z" fill="white"/>
<path d="M434.653 82.4463C431.5 83.3894 427.854 83.8615 424.308 83.7675" stroke="#485E68" stroke-miterlimit="10"/>
<path d="M415.145 21.9421C418.002 23.0747 421.253 23.6411 424.505 23.8299L415.145 21.9421Z" fill="white"/>
<path d="M415.145 21.9421C418.002 23.0747 421.253 23.6411 424.505 23.8299" stroke="#485E68" stroke-miterlimit="10"/>
<path d="M424.406 83.7672C421.155 83.5781 417.904 83.012 415.047 81.8799L424.406 83.7672Z" fill="white"/>
<path d="M424.406 83.7672C421.155 83.5781 417.904 83.012 415.047 81.8799" stroke="#485E68" stroke-miterlimit="10"/>
<path d="M414.947 81.8785C414.061 81.5954 413.076 81.1233 412.387 80.6512C408.741 78.67 406.869 75.9324 406.869 73.2889L407.067 13.3523C407.067 15.9953 408.938 18.7325 412.584 20.7147C413.371 21.1866 414.259 21.5642 415.145 21.9418" fill="white"/>
<path d="M415.418 81.5865C414.454 81.3807 413.383 81.0374 412.634 80.6942C408.671 79.2536 406.636 77.263 406.636 75.3409L406.851 31.7598C406.851 33.6815 408.886 35.6718 412.849 37.1131C413.704 37.4563 414.669 37.7308 415.632 38.0053" stroke="#485E68" stroke-miterlimit="10"/>
<path d="M444.619 28.0018L444.42 75.3566C444.42 77.4443 442.526 79.5329 438.936 81.0982C431.559 84.3049 419.596 84.3049 412.219 81.0982C408.53 79.5329 406.636 77.3701 406.636 75.2815L406.836 27.9272C406.836 30.0154 408.73 32.178 412.418 33.7441C419.895 36.9508 431.759 36.9508 439.136 33.7441C442.724 32.178 444.519 30.0899 444.619 28.0018Z" stroke="#485E68" stroke-miterlimit="10"/>
<path d="M438.988 20.7151C431.698 24.7738 419.874 24.7738 412.583 20.7151H438.988Z" fill="white"/>
<path d="M438.988 20.7151C431.698 24.7738 419.874 24.7738 412.583 20.7151" stroke="#485E68" stroke-miterlimit="10"/>
<path fill-rule="evenodd" clip-rule="evenodd" d="M444.619 31.6689C444.32 16.3072 434.824 1.02171 425.528 1.09769C416.231 1.17377 406.936 16.6875 406.636 31.8209C408.335 36.0796 416.032 39.4257 425.528 39.4257C435.023 39.4257 442.92 35.9275 444.619 31.6689Z" fill="white" stroke="#485E68" stroke-miterlimit="10"/>
<path d="M431.105 98.3031C433.065 98.3031 434.653 96.7815 434.653 94.9055C434.653 93.0284 433.065 91.5068 431.105 91.5068C429.147 91.5068 427.559 93.0284 427.559 94.9055C427.559 96.7815 429.147 98.3031 431.105 98.3031Z" fill="#37404A"/>
<path d="M431.105 108.969C433.065 108.969 434.653 107.448 434.653 105.572C434.653 103.694 433.065 102.173 431.105 102.173C429.147 102.173 427.559 103.694 427.559 105.572C427.559 107.448 429.147 108.969 431.105 108.969Z" fill="#37404A"/>
<path fill-rule="evenodd" clip-rule="evenodd" d="M434.554 116.331C434.554 118.219 432.979 119.73 431.007 119.73C429.038 119.73 427.461 118.219 427.461 116.331C427.461 114.444 429.038 112.933 431.007 112.933C432.979 113.027 434.554 114.538 434.554 116.331Z" fill="#37404A"/>
<path d="M445.119 30.3225C445.119 30.3225 502.707 65.421 456.414 107.815C418.594 142.478 373.975 131.834 358.808 126.83C354.277 125.284 350.238 122.736 347.382 119.188C340.881 111.182 335.563 98.1725 398.697 99.0825" stroke="#485E68" stroke-miterlimit="10"/>
<path d="M460.612 48.0496C460.612 48.0496 479.312 69.0775 467.938 89.2524" stroke="#485E68" stroke-miterlimit="10"/>
<path d="M345.982 99.0574C345.982 99.0574 311.4 120.578 347.361 128.979" stroke="#485E68" stroke-miterlimit="10"/>
<path d="M226.275 464.061L268.837 487.658" stroke="#485E68" stroke-miterlimit="10"/>
<path d="M185.092 491.811L226.077 514.464C226.373 514.559 226.669 514.559 226.866 514.464L289.133 480.012C289.625 479.729 289.625 478.974 289.133 478.69L249.329 456.699C248.344 456.131 247.26 456.131 246.276 456.699L185.19 490.49C184.5 490.773 184.5 491.528 185.092 491.811Z" fill="white" stroke="#485E68" stroke-width="1.5" stroke-miterlimit="10"/>
<path d="M231.497 457.737C232.187 458.114 232.187 458.68 231.497 459.058C230.807 459.435 229.723 459.435 229.034 459.058L220.561 454.433C219.871 454.055 219.871 453.489 220.561 453.112C221.25 452.734 222.334 452.734 223.024 453.112L231.497 457.737Z" fill="#80C1DC"/>
<path d="M214.551 487.091L216.225 495.303C216.225 497.286 219.28 498.984 223.122 498.984C226.965 498.984 230.018 497.38 230.018 495.303L231.694 487.091H214.551Z" fill="white" stroke="#485E68" stroke-miterlimit="10"/>
<path d="M233.171 480.295H228.442C226.965 479.824 225.093 479.446 223.221 479.446C221.053 479.446 218.984 479.824 217.309 480.484L213.172 480.579L213.467 484.638C213.467 487.469 217.802 489.828 223.221 489.828C228.639 489.828 232.974 487.469 232.974 484.638L233.171 480.295Z" fill="white" stroke="#485E68" stroke-miterlimit="10"/>
<path d="M223.221 479.446C227.26 479.446 230.709 480.768 232.186 482.562C232.679 481.9 232.974 481.239 232.974 480.484C232.974 477.653 228.639 475.293 223.221 475.293C217.802 475.293 213.467 477.653 213.467 480.484C213.467 481.239 213.762 481.9 214.255 482.562C215.634 480.768 219.181 479.446 223.221 479.446Z" fill="white" stroke="#485E68" stroke-miterlimit="10"/>
<path d="M223.221 475.294C217.705 475.294 213.173 477.655 213.173 480.675C213.173 483.601 217.705 486.055 223.221 486.055C228.738 486.055 233.27 483.696 233.27 480.675C233.172 477.655 228.738 475.294 223.221 475.294ZM223.221 484.734C218.886 484.734 215.34 482.846 215.34 480.58C215.34 478.315 218.886 476.427 223.221 476.427C227.557 476.427 231.103 478.315 231.103 480.58C231.005 482.941 227.557 484.734 223.221 484.734Z" fill="white" stroke="#485E68" stroke-miterlimit="10"/>
<path d="M223.221 486.148C217.506 486.148 212.974 483.6 212.974 480.579C212.974 477.463 217.604 475.01 223.221 475.01C228.935 475.01 233.467 477.558 233.467 480.579C233.467 483.694 228.837 486.148 223.221 486.148ZM223.221 475.482C217.802 475.482 213.467 477.748 213.467 480.579C213.467 483.411 217.802 485.676 223.221 485.676C228.639 485.676 232.974 483.411 232.974 480.579C232.974 477.748 228.541 475.482 223.221 475.482ZM223.221 476.708C219.083 476.708 215.634 478.502 215.634 480.673C215.634 482.845 219.083 484.638 223.221 484.638C227.358 484.638 230.807 482.845 230.807 480.673C230.807 478.502 227.358 476.708 223.221 476.708Z" fill="white" stroke="#485E68" stroke-miterlimit="10"/>
<path d="M223.221 482.655C222.334 482.655 221.645 481.994 221.645 481.145V468.78C221.645 467.931 222.334 467.27 223.221 467.27C224.107 467.27 224.798 467.931 224.798 468.78V481.145C224.798 481.994 224.009 482.655 223.221 482.655Z" fill="#E5E5E5"/>
<path d="M213.37 442.068C213.468 441.973 213.567 441.879 213.665 441.879C214.847 441.69 220.464 441.313 224.896 446.787C229.43 452.451 226.572 456.793 226.177 457.453C226.177 457.548 226.079 457.548 225.981 457.548C225.193 457.831 219.971 459.248 215.537 453.679C211.103 448.204 212.975 443.013 213.37 442.068Z" fill="#0066FF"/>
<path d="M223.417 458.208C221.25 458.208 218.097 457.452 215.24 453.866C210.708 448.297 212.679 442.917 213.072 441.973C213.172 441.785 213.368 441.596 213.565 441.596C214.649 441.502 220.56 441.03 224.994 446.599C229.526 452.356 226.866 456.792 226.275 457.642C226.177 457.737 226.077 457.831 225.979 457.831C225.684 457.925 224.698 458.208 223.417 458.208ZM214.846 441.973C214.353 441.973 213.96 441.973 213.663 442.068C213.663 442.068 213.565 442.068 213.565 442.162C213.172 443.106 211.3 448.203 215.634 453.583C219.969 459.058 224.896 457.737 225.782 457.359C226.373 456.509 228.935 452.356 224.6 446.882C221.25 442.634 216.915 441.973 214.846 441.973Z" fill="#0066FF"/>
<path d="M225.684 457.737C222.433 450.186 217.309 446.127 217.309 446.032L217.605 445.655C217.704 445.655 222.827 449.903 226.177 457.548L225.684 457.737Z" fill="#485E68"/>
<path d="M220.364 450.563C219.083 450.563 216.816 450.186 214.156 448.487L214.451 448.11C218.393 450.752 221.447 449.997 221.447 449.997L221.545 450.469C221.545 450.375 221.053 450.563 220.364 450.563Z" fill="#485E68"/>
<path d="M224.994 455.282L224.6 454.999C226.57 452.356 224.796 449.524 224.796 449.524L225.289 449.241C225.191 449.241 227.161 452.451 224.994 455.282Z" fill="#485E68"/>
<path d="M233.468 443.201C233.566 443.201 233.763 443.201 233.763 443.389C234.452 444.333 237.409 448.958 234.354 455.188C231.201 461.606 225.881 461.323 224.995 461.229C224.896 461.229 224.896 461.229 224.798 461.134C224.207 460.568 220.463 456.887 223.517 450.468C226.669 444.05 232.384 443.295 233.468 443.201Z" fill="#94E0FF"/>
<path d="M225.881 461.417C225.486 461.417 225.289 461.417 225.093 461.417C224.994 461.417 224.796 461.324 224.698 461.228C223.91 460.568 220.264 456.793 223.417 450.279C226.57 443.861 232.285 443.106 233.467 443.012C233.664 443.012 233.861 443.106 234.058 443.295C234.748 444.144 237.802 448.958 234.65 455.376C231.989 460.756 227.753 461.417 225.881 461.417ZM233.566 443.389C232.482 443.483 226.965 444.238 224.009 450.375C220.954 456.604 224.501 460.096 225.191 460.757C226.176 460.851 231.299 461.134 234.255 454.904C237.21 448.864 234.255 444.333 233.566 443.389Z" fill="#94E0FF"/>
<path d="M225.093 461.228L224.698 460.945C230.118 454.716 231.595 448.486 231.595 448.392L232.088 448.486C232.088 448.486 230.609 454.81 225.093 461.228Z" fill="#485E68"/>
<path d="M229.526 454.056C229.427 453.962 227.26 451.601 227.949 446.787L228.442 446.882C227.851 451.507 229.92 453.679 229.92 453.772L229.526 454.056Z" fill="#485E68"/>
<path d="M227.358 459.152C227.063 459.152 226.865 459.152 226.57 459.058L226.669 458.586C230.018 459.058 231.792 456.226 231.89 456.131L232.383 456.416C232.285 456.509 230.511 459.152 227.358 459.152Z" fill="#485E68"/>
<path d="M203.419 453.49C203.319 453.584 203.221 453.679 203.221 453.773C203.221 455 203.615 460.946 210.413 464.817C217.507 468.781 222.039 465.194 222.827 464.628C222.925 464.533 222.925 464.533 222.925 464.439C223.123 463.59 224.009 457.926 217.014 454.056C210.216 450.186 204.6 452.924 203.419 453.49Z" fill="#94E0FF"/>
<path d="M216.915 466.987C215.043 466.987 212.875 466.515 210.412 465.099C203.417 461.229 203.023 454.999 203.023 453.866C203.023 453.678 203.122 453.395 203.318 453.3C204.402 452.734 210.117 449.903 217.211 453.866C224.403 457.831 223.516 463.494 223.319 464.532C223.319 464.627 223.221 464.816 223.122 464.91C222.433 465.287 220.264 466.987 216.915 466.987ZM209.624 452.262C206.471 452.262 204.206 453.395 203.615 453.678L203.515 453.772C203.515 454.904 203.811 460.852 210.609 464.627C217.408 468.403 221.841 465.099 222.629 464.438C222.629 464.438 222.629 464.438 222.629 464.344C222.826 463.306 223.614 458.02 216.816 454.244C214.255 452.734 211.693 452.262 209.624 452.262Z" fill="#94E0FF"/>
<path d="M222.925 464.721C213.763 462.362 208.245 457.548 208.245 457.454L208.639 457.076C208.738 457.171 214.058 461.89 223.122 464.155L222.925 464.721Z" fill="#485E68"/>
<path d="M214.156 460.945L213.663 460.851C213.663 460.851 214.058 457.548 210.511 453.772L210.905 453.394C214.551 457.359 214.156 460.756 214.156 460.945Z" fill="#485E68"/>
<path d="M243.419 453.112C243.419 453.018 243.321 452.924 243.222 452.829C242.238 452.452 237.016 450.752 231.498 454.717C225.882 458.87 227.36 463.59 227.557 464.345C227.557 464.439 227.656 464.439 227.656 464.533C228.345 465.005 232.779 467.553 238.395 463.401C243.912 459.436 243.517 454.151 243.419 453.112Z" fill="#0066FF"/>
<path d="M231.99 466.043C229.625 466.043 227.949 465.1 227.556 464.816C227.458 464.721 227.359 464.627 227.359 464.533C227.063 463.589 225.585 458.869 231.398 454.622C237.015 450.469 242.335 452.262 243.319 452.64C243.516 452.734 243.616 452.923 243.714 453.111C243.812 454.151 244.305 459.531 238.689 463.683C236.127 465.477 233.862 466.043 231.99 466.043ZM239.182 452.357C237.113 452.357 234.453 452.923 231.694 454.906C226.275 458.869 227.556 463.4 227.851 464.249C228.64 464.817 232.876 467.176 238.294 463.117C243.714 459.152 243.319 454.055 243.123 453.017V452.923C242.63 452.923 241.152 452.357 239.182 452.357Z" fill="#0066FF"/>
<path d="M227.949 464.722L227.556 464.439C232.581 458.115 238.492 455.472 238.492 455.472L238.689 455.944C238.689 455.944 232.876 458.493 227.949 464.722Z" fill="#485E68"/>
<path d="M236.915 459.624C234.846 459.624 233.664 458.964 233.566 458.964L233.862 458.492C233.862 458.492 236.522 459.907 240.856 458.397L241.054 458.869C239.477 459.435 238.098 459.624 236.915 459.624Z" fill="#485E68"/>
<path d="M229.23 462.644C227.949 459.435 230.609 456.981 230.609 456.981L231.004 457.358C230.906 457.452 228.639 459.624 229.723 462.551L229.23 462.644Z" fill="#485E68"/>
<path d="M209.131 463.306C209.033 463.306 208.935 463.4 208.836 463.494C208.442 464.438 206.767 469.441 211.103 474.632C215.536 479.918 220.462 478.407 221.25 478.124C221.348 478.124 221.348 478.03 221.447 478.03C221.94 477.369 224.501 473.121 219.969 467.835C215.635 462.645 210.215 463.117 209.131 463.306Z" fill="#0066FF" stroke="#485E68" stroke-width="0.5" stroke-miterlimit="10"/>
<path d="M218.688 478.786C216.62 478.786 213.663 478.031 210.905 474.727C206.471 469.441 208.147 464.344 208.54 463.306C208.638 463.117 208.836 462.928 209.033 462.928C210.117 462.74 215.732 462.268 220.166 467.554C224.698 472.934 222.136 477.276 221.645 478.125C221.545 478.22 221.447 478.314 221.348 478.314C221.053 478.503 220.068 478.786 218.688 478.786ZM209.131 463.495C209.131 463.589 209.131 463.589 209.131 463.495C208.738 464.438 207.063 469.347 211.3 474.444C215.634 479.541 220.264 478.22 221.152 477.842C221.743 477.087 224.107 473.028 219.773 467.837C215.536 462.834 210.215 463.4 209.131 463.495Z" fill="#0066FF" stroke="#485E68" stroke-width="0.5" stroke-miterlimit="10"/>
<path d="M221.348 478.22C214.649 473.5 211.791 467.931 211.693 467.931L212.186 467.742C212.186 467.837 215.043 473.217 221.645 477.842L221.348 478.22Z" fill="#485E68"/>
<path d="M215.437 472.555L214.944 472.272C214.944 472.272 216.324 469.724 214.649 465.571L215.141 465.382C217.013 469.724 215.536 472.366 215.437 472.555Z" fill="#485E68"/>
<path d="M217.506 476.993C215.142 476.993 213.467 475.482 213.467 475.387L213.861 475.01C213.96 475.104 216.324 477.276 219.28 476.142L219.476 476.614C218.787 476.897 218.097 476.993 217.506 476.993Z" fill="#485E68"/>
<path d="M238.985 462.644C238.985 462.55 238.788 462.456 238.689 462.361C237.507 462.172 231.596 461.417 226.571 466.892C221.447 472.555 224.107 477.275 224.6 478.03C224.6 478.124 224.699 478.124 224.797 478.219C225.586 478.596 230.906 480.39 236.029 474.727C241.053 469.251 239.379 463.778 238.985 462.644Z" fill="#94E0FF"/>
<path d="M227.949 479.069C226.373 479.069 225.191 478.691 224.698 478.502C224.6 478.408 224.501 478.408 224.403 478.219C223.812 477.276 221.25 472.462 226.472 466.798C231.497 461.229 237.605 461.984 238.787 462.173C238.984 462.173 239.182 462.362 239.28 462.55C239.675 463.589 241.349 469.346 236.324 474.915C233.27 478.219 230.216 479.069 227.949 479.069ZM236.817 462.55C234.452 462.55 230.413 463.211 226.866 467.176C221.94 472.65 224.403 477.181 224.896 478.031C225.881 478.502 230.906 480.107 235.832 474.632C240.758 469.252 239.083 463.777 238.689 462.739C238.689 462.739 238.689 462.645 238.591 462.645C238.394 462.645 237.703 462.55 236.817 462.55Z" fill="#94E0FF"/>
<path d="M225.093 478.314L224.6 478.125C228.541 470.29 234.255 466.231 234.354 466.231L234.649 466.61C234.55 466.61 228.935 470.668 225.093 478.314Z" fill="#485E68"/>
<path d="M231.694 471.139C230.609 471.139 229.92 470.951 229.821 470.951L230.018 470.479C230.018 470.479 233.171 471.423 237.506 468.875L237.803 469.346C235.24 470.762 233.073 471.139 231.694 471.139Z" fill="#485E68"/>
<path d="M225.979 475.859C223.91 472.744 226.177 469.535 226.177 469.535L226.57 469.818C226.57 469.818 224.501 472.744 226.373 475.67L225.979 475.859Z" fill="#485E68"/>
<path d="M225.587 454.434C225.488 454.34 225.39 454.34 225.192 454.34C224.109 454.812 218.789 457.172 217.803 464.251C216.817 471.519 221.646 474.068 222.434 474.445C222.532 474.445 222.532 474.445 222.63 474.445C223.518 474.256 228.838 473.03 229.922 465.855C230.907 458.776 226.473 455.095 225.587 454.434Z" fill="#0066FF" stroke="#485E68" stroke-width="0.5" stroke-miterlimit="10"/>
<path d="M222.629 474.726C222.531 474.726 222.433 474.726 222.333 474.632C221.348 474.16 216.521 471.517 217.604 464.155C218.59 456.982 224.107 454.432 225.191 454.055C225.388 453.961 225.684 453.961 225.782 454.149C226.669 454.81 231.299 458.586 230.216 465.853C229.132 473.215 223.812 474.538 222.629 474.726C222.728 474.726 222.629 474.726 222.629 474.726ZM225.388 454.621C225.388 454.621 225.289 454.621 225.388 454.621C224.305 454.999 219.083 457.453 218.097 464.344C217.111 471.328 221.645 473.783 222.531 474.255C223.615 474.066 228.639 472.838 229.625 465.853C230.708 458.869 226.275 455.282 225.388 454.621Z" fill="#0066FF"/>
<path d="M222.629 474.726C222.531 474.726 222.433 474.726 222.333 474.632C221.348 474.16 216.521 471.517 217.604 464.155C218.59 456.982 224.107 454.432 225.191 454.055C225.388 453.961 225.684 453.961 225.782 454.149C226.669 454.81 231.299 458.586 230.216 465.853C229.132 473.215 223.812 474.538 222.629 474.726ZM222.629 474.726C222.728 474.726 222.629 474.726 222.629 474.726V474.726ZM225.388 454.621C225.388 454.621 225.289 454.621 225.388 454.621C224.305 454.999 219.083 457.453 218.097 464.344C217.111 471.328 221.645 473.783 222.531 474.255C223.615 474.066 228.639 472.838 229.625 465.853C230.708 458.869 226.275 455.282 225.388 454.621Z" stroke="#485E68" stroke-width="0.5" stroke-miterlimit="10"/>
<path d="M222.433 474.538C221.25 466.042 223.713 459.813 223.713 459.718L224.205 459.907C224.205 460.001 221.841 466.137 222.924 474.442L222.433 474.538Z" fill="#485E68"/>
<path d="M222.728 465.948L222.629 465.476C222.629 465.476 225.782 464.627 227.949 460.285L228.442 460.474C226.077 465.004 222.826 465.854 222.728 465.948Z" fill="#485E68"/>
<path d="M222.334 471.99C218.885 470.479 218.885 466.704 218.885 466.61H219.378C219.378 466.61 219.378 470.101 222.433 471.518L222.334 471.99Z" fill="#485E68"/>
<path d="M115.14 473.687C115.14 475.104 114.056 475.67 112.776 475.01C111.495 474.255 110.411 472.555 110.411 471.139C110.411 469.724 111.495 469.158 112.776 469.818C114.056 470.479 115.14 472.272 115.14 473.687Z" fill="#198CBF"/>
<path d="M114.647 477.463C114.155 477.463 113.662 477.37 113.17 477.086C111.692 476.236 110.411 474.255 110.411 472.556C110.411 471.611 110.805 470.856 111.495 470.479C112.184 470.101 113.071 470.196 113.958 470.667C115.436 471.517 116.716 473.5 116.716 475.198C116.716 476.142 116.322 476.897 115.633 477.276C115.337 477.37 115.042 477.463 114.647 477.463ZM112.578 471.707C112.48 471.707 112.381 471.707 112.381 471.801C112.184 471.894 112.086 472.178 112.086 472.65C112.086 473.783 112.973 475.293 114.056 475.859C114.45 476.048 114.746 476.142 114.943 476.048C115.14 475.953 115.239 475.67 115.239 475.198C115.239 474.066 114.352 472.556 113.268 471.99C112.973 471.801 112.776 471.707 112.578 471.707Z" fill="#454646"/>
<path d="M63.3164 445.655L118.588 415.072V353.908L63.3164 384.491V445.655Z" fill="white" stroke="#485E68" stroke-miterlimit="10"/>
<path d="M58.8828 390.248L115.731 358.816V421.679L58.8828 453.111V390.248ZM114.155 361.459L60.4593 391.192V450.657L114.155 420.924V361.459Z" fill="#454646"/>
<path d="M93.0863 435.973L91.7004 436.692L111.191 471.129L112.577 470.409L93.0863 435.973Z" fill="#454646"/>
<path d="M99.7702 391.853C99.7702 398.837 92.972 408.182 86.0754 417.81C79.2772 415.827 72.3806 414.034 72.3806 407.05C72.3806 401.575 75.5334 395.346 79.8685 392.985C84.105 390.626 86.0754 393.174 86.0754 393.174C86.0754 393.174 88.0459 388.454 92.2824 386.095C96.6175 383.735 99.7702 386.378 99.7702 391.853Z" fill="#94E0FF"/>
<path d="M105.879 393.929C105.879 400.913 99.0804 410.258 92.1838 419.886C85.3856 417.903 78.489 416.11 78.489 409.126C78.489 403.651 81.6418 397.42 85.9767 395.061C90.2133 392.702 92.1838 395.25 92.1838 395.25C92.1838 395.25 94.1543 390.53 98.3908 388.171C102.726 385.811 105.879 388.549 105.879 393.929Z" stroke="#485E68" stroke-width="3" stroke-miterlimit="10"/>
<path d="M604.114 280.38C604.114 282.456 605.591 285.005 607.463 286.043C609.335 287.081 610.813 286.232 610.813 284.156C610.813 282.079 609.335 279.53 607.463 278.491C605.591 277.548 604.114 278.397 604.114 280.38Z" fill="#198CBF"/>
<path d="M607.858 288.309C607.267 288.309 606.577 288.12 605.887 287.742C603.72 286.515 602.045 283.778 602.045 281.324C602.045 280.003 602.538 278.964 603.522 278.492C604.508 278.02 605.691 278.02 606.872 278.681C609.04 279.908 610.715 282.645 610.715 285.1C610.715 286.421 610.223 287.459 609.237 287.931C608.842 288.214 608.351 288.309 607.858 288.309ZM604.803 279.908C604.607 279.908 604.508 279.908 604.41 280.003C604.114 280.192 603.917 280.663 603.917 281.324C603.917 283.117 605.296 285.289 606.872 286.138C607.463 286.421 607.956 286.515 608.351 286.327C608.646 286.138 608.842 285.666 608.842 285.006C608.842 283.211 607.463 281.041 605.887 280.192C605.493 280.003 605.099 279.908 604.803 279.908Z" fill="#454646"/>
<path d="M647.661 256.121L696.332 283.022V229.22L647.661 202.32V256.121Z" fill="white" stroke="#485E68" stroke-miterlimit="10"/>
<path d="M693.377 286.609L642.932 258.67V202.792L693.377 230.731V286.609ZM644.804 257.632L691.505 283.495V231.769L644.804 205.907V257.632Z" fill="#454646"/>
<path d="M643.134 257.483L608.16 280.721L609.228 282.194L644.201 258.956L643.134 257.483Z" fill="#454646"/>
<path d="M676.036 240.169C676.529 241.019 677.021 241.964 677.415 242.813C677.514 243.19 677.514 243.568 677.612 243.945L676.824 243.379C676.726 242.719 676.627 241.964 676.431 241.302L675.05 240.264C674.755 240.075 674.459 239.886 674.164 239.603C674.066 239.226 673.868 238.848 673.671 238.471C674.164 238.848 674.657 239.131 675.15 239.509L676.036 240.169Z" fill="#94E0FF"/>
<path d="M661.75 244.889C661.849 245.172 661.849 245.455 661.947 245.833L661.257 245.361C660.469 243.568 659.78 241.775 659.485 239.886L660.273 240.358C660.371 241.019 660.568 241.68 660.766 242.341L661.455 242.813C661.455 243.096 661.553 243.473 661.553 243.757L661.159 243.473C661.357 243.945 661.553 244.417 661.75 244.889Z" fill="#94E0FF"/>
<path d="M679.78 248.853C679.879 249.514 679.879 250.174 679.879 250.741C679.879 251.496 679.78 252.252 679.682 252.912C679.584 253.195 679.584 253.479 679.484 253.667C679.386 254.139 679.189 254.611 678.992 255.083C678.598 255.932 678.105 256.593 677.415 257.065C675.347 258.859 672.095 258.953 668.451 256.876C662.145 253.384 657.12 244.983 657.12 237.998C657.12 233.94 658.893 231.297 661.652 230.542C662.44 230.353 663.327 230.259 664.312 230.353C665.002 230.448 665.691 230.542 666.381 230.825C666.775 230.92 667.17 231.108 667.563 231.297C667.958 231.486 668.253 231.675 668.647 231.863C669.239 232.146 669.83 232.524 670.322 232.901C670.618 233.09 670.814 233.279 671.111 233.468C672.785 234.789 674.262 236.394 675.543 238.187C676.036 238.848 676.529 239.603 676.924 240.358C677.022 240.547 677.219 240.831 677.317 241.018C677.515 241.491 677.81 241.869 678.007 242.341C678.795 244.134 679.484 245.927 679.78 247.815C679.78 248.193 679.78 248.57 679.78 248.853ZM659.09 244.511C660.371 248.004 662.538 251.213 665.198 253.667C663.917 251.684 662.933 249.42 662.342 247.343C662.342 247.155 662.243 246.966 662.243 246.777L661.948 246.587L659.09 244.511ZM676.924 256.215C677.317 255.838 677.712 255.46 678.007 254.988L676.234 254.328L675.248 253.95L674.854 253.856C674.755 254.233 674.657 254.517 674.46 254.8C674.066 255.649 673.475 256.31 672.785 256.876C672.49 257.065 672.194 257.253 671.8 257.442C672.883 257.632 673.869 257.632 674.854 257.349C675.643 257.065 676.332 256.687 676.924 256.215ZM660.174 232.618C659.78 232.996 659.385 233.373 659.09 233.845L659.583 234.034L660.371 234.317L662.145 234.978C662.243 234.694 662.341 234.411 662.538 234.128C662.638 233.845 662.834 233.656 662.933 233.468C663.524 232.618 664.312 231.958 665.198 231.486C664.115 231.297 663.129 231.297 662.145 231.58C661.455 231.769 660.766 232.146 660.174 232.618ZM676.036 240.169C674.854 238.282 673.475 236.583 671.899 235.166C672.588 236.3 673.179 237.432 673.771 238.565C673.967 238.942 674.066 239.32 674.264 239.697C674.559 240.452 674.755 241.208 674.953 241.963L676.824 243.379L677.613 243.945L678.007 244.228C677.81 243.756 677.613 243.284 677.415 242.718C677.022 241.963 676.529 241.114 676.036 240.169ZM668.154 241.586V238.376C666.874 237.715 665.593 237.149 664.41 236.677C664.312 236.677 664.214 236.583 664.115 236.583L663.622 236.394L662.736 236.111C662.538 236.772 662.341 237.527 662.243 238.376C662.243 238.659 662.145 238.942 662.145 239.131C662.145 239.603 662.046 240.075 662.046 240.452L663.426 241.208L664.214 241.586L668.154 243.756V242.341V241.586ZM668.154 247.721V244.7L664.312 242.624L663.524 242.246L662.046 241.397C662.046 242.057 662.145 242.812 662.145 243.473C662.145 243.756 662.243 244.134 662.243 244.417C662.341 245.077 662.44 245.832 662.638 246.493L664.017 247.532C664.312 247.721 664.608 247.91 664.903 248.193C665.198 248.381 665.494 248.57 665.79 248.853C666.579 249.325 667.366 249.797 668.056 250.269V248.759L668.154 247.721ZM668.942 242.812V244.228L670.223 244.983L671.011 245.361L675.051 247.532C675.051 247.06 675.051 246.587 674.953 246.115C674.953 245.832 674.854 245.549 674.854 245.266C674.755 244.322 674.559 243.473 674.362 242.529L672.983 241.491C672.292 241.018 671.602 240.547 671.011 240.075C670.716 239.886 670.519 239.792 670.223 239.603C669.83 239.32 669.337 239.037 668.942 238.848V242.058V242.812ZM668.942 249.042V250.458C669.337 250.646 669.83 250.929 670.223 251.118C670.519 251.213 670.716 251.401 671.011 251.496C671.702 251.779 672.39 252.063 672.983 252.346L674.362 252.818C674.46 252.535 674.559 252.252 674.657 251.873C674.755 251.59 674.755 251.401 674.854 251.118C675.051 250.269 675.052 249.42 675.15 248.476L671.111 246.304L670.322 245.927L669.041 245.172V248.287L668.942 249.042ZM668.154 252.818V250.929C667.563 250.552 666.972 250.269 666.381 249.891C666.086 249.703 665.79 249.514 665.396 249.231C664.903 248.853 664.41 248.57 663.917 248.193L663.129 247.626L663.031 247.532C663.229 248.193 663.426 248.948 663.721 249.608C664.805 252.535 666.381 254.894 668.154 256.027V254.328V252.818ZM668.844 256.31C669.83 256.782 670.814 256.782 671.602 256.404C671.997 256.215 672.39 255.932 672.785 255.555C673.278 255.083 673.672 254.328 674.066 253.573L673.081 253.195C672.39 252.912 671.702 252.629 670.913 252.346C670.618 252.252 670.421 252.156 670.125 251.969C669.73 251.779 669.239 251.496 668.844 251.307V253.667V254.8V256.31ZM668.154 235.449V232.524C667.465 232.241 666.874 232.146 666.282 232.241C665.691 232.335 665.1 232.524 664.608 232.996C664.312 233.185 664.115 233.468 663.819 233.845C663.622 234.034 663.524 234.317 663.327 234.506C663.129 234.789 663.031 235.072 662.933 235.355L663.721 235.639L663.917 235.734C664.115 235.828 664.312 235.922 664.509 235.922C665.691 236.394 666.874 236.96 668.154 237.621V236.3V235.449ZM668.942 236.583V237.904C669.337 238.187 669.83 238.376 670.223 238.659C670.519 238.848 670.716 238.942 671.011 239.131C671.702 239.603 672.39 240.075 673.179 240.641L674.164 241.303C673.967 240.547 673.671 239.697 673.376 239.037C673.179 238.659 673.081 238.282 672.883 237.904C672.39 236.772 671.8 235.734 671.111 234.883C670.913 234.6 670.618 234.223 670.322 234.034C669.928 233.562 669.435 233.185 669.041 232.901V235.734L668.942 236.583ZM678.894 252.629C678.992 252.063 679.091 251.401 679.091 250.741L677.613 249.891L676.824 249.514L675.643 248.853C675.643 249.703 675.543 250.552 675.445 251.401C675.445 251.684 675.347 251.969 675.248 252.157C675.15 252.44 675.15 252.818 675.051 253.101L675.643 253.29L676.529 253.573L678.303 254.233C678.401 253.95 678.5 253.667 678.598 253.384C678.795 253.101 678.894 252.912 678.894 252.629ZM677.712 249.136L679.091 249.891C679.091 249.42 678.992 248.948 678.992 248.381C678.992 248.098 678.894 247.815 678.894 247.438C678.795 246.777 678.598 246.115 678.401 245.455L677.712 244.983L676.924 244.417L675.15 243.096C675.347 243.945 675.445 244.794 675.543 245.644C675.543 245.927 675.643 246.21 675.643 246.493C675.643 246.966 675.741 247.438 675.741 247.91L677.022 248.57L677.712 249.136ZM657.908 238.942C657.908 240.358 658.204 241.774 658.697 243.379L661.257 245.266L661.948 245.738C661.849 245.455 661.849 245.172 661.75 244.794C661.652 244.417 661.652 244.039 661.553 243.662C661.553 243.379 661.455 243.001 661.455 242.718C661.357 242.057 661.357 241.397 661.357 240.831L660.273 240.263L659.485 239.792L657.908 238.942ZM658.697 234.6C658.204 235.638 658.006 236.772 657.908 238.187L659.287 238.942L660.076 239.414L661.257 240.075C661.257 239.603 661.257 239.131 661.357 238.753C661.357 238.47 661.455 238.187 661.455 237.998C661.554 237.244 661.75 236.583 661.948 235.922L660.273 235.261L659.485 234.978L658.697 234.6Z" fill="#485E68"/>
<path d="M668.942 242.813V241.964L670.223 242.719V239.604C670.519 239.793 670.716 239.887 671.011 240.076V243.096L674.854 245.173C674.854 245.456 674.953 245.739 674.953 246.023L671.011 243.851V245.268L670.223 244.89V243.474L668.942 242.813Z" fill="#94E0FF"/>
<path d="M670.913 255.178C671.602 255.461 672.194 255.555 672.785 255.461C672.391 255.838 671.997 256.121 671.602 256.31C671.209 256.121 670.913 255.933 670.519 255.744C669.928 255.461 669.337 255.083 668.844 254.706V253.573C669.238 254.045 669.731 254.423 670.125 254.706V251.875C670.421 251.968 670.618 252.158 670.913 252.251V255.178Z" fill="#94E0FF"/>
<path d="M676.233 254.328C675.642 255.177 674.854 255.838 673.967 256.31C675.05 256.499 676.036 256.499 677.022 256.216C676.431 256.782 675.741 257.065 674.952 257.348C674.262 257.255 673.573 257.159 672.883 256.876C673.573 256.404 674.164 255.649 674.559 254.8C674.854 254.611 675.05 254.328 675.347 253.951L676.233 254.328Z" fill="#94E0FF"/>
<path d="M668.943 249.042V248.193C669.337 248.476 669.829 248.759 670.224 248.948V245.739L671.012 246.117V249.325C672.293 249.986 673.475 250.552 674.756 251.024C674.756 251.308 674.657 251.591 674.559 251.78C673.377 251.308 672.194 250.741 670.913 250.08V251.403C670.618 251.308 670.42 251.214 670.125 251.024V249.703C669.731 249.514 669.337 249.231 668.943 249.042Z" fill="#94E0FF"/>
<path d="M678.893 252.628C678.795 252.911 678.795 253.196 678.696 253.384L676.922 252.724C676.824 253.007 676.726 253.29 676.529 253.573L675.642 253.29C675.838 253.007 675.938 252.724 676.036 252.44L675.248 252.156C675.347 251.873 675.347 251.59 675.445 251.401L676.331 251.685C676.529 251.024 676.726 250.269 676.824 249.42L677.612 249.797C677.514 250.552 677.317 251.213 677.219 251.873L678.893 252.628Z" fill="#94E0FF"/>
<path d="M677.71 249.137L676.923 248.759C676.923 248.287 677.021 247.816 677.021 247.438L675.642 246.683C675.642 246.4 675.543 246.117 675.543 245.833L677.021 246.683C677.021 246.023 676.923 245.267 676.923 244.606L677.71 245.172C677.81 245.833 677.81 246.493 677.81 247.061L678.893 247.627C678.991 247.91 678.991 248.287 678.991 248.571L677.81 247.91C677.81 248.193 677.81 248.665 677.71 249.137Z" fill="#94E0FF"/>
<path d="M670.223 234.034C670.519 234.317 670.716 234.602 671.011 234.885V236.772C671.602 237.15 672.194 237.433 672.785 237.81C672.983 238.188 673.081 238.565 673.278 238.943C672.49 238.471 671.702 237.999 671.011 237.527V239.037C670.716 238.848 670.519 238.754 670.223 238.565V237.15C669.83 236.961 669.337 236.678 668.942 236.489V235.64C669.337 235.828 669.83 236.112 670.223 236.3V234.034Z" fill="#94E0FF"/>
<path d="M661.85 246.589L662.145 246.777C662.145 246.966 662.243 247.155 662.243 247.344C662.145 247.061 662.046 246.872 661.85 246.589Z" fill="#94E0FF"/>
<path d="M664.805 245.268L666.184 246.306C666.874 246.777 667.563 247.249 668.154 247.721V248.571C667.465 248.099 666.775 247.627 665.986 247.061L665.001 246.4C665.198 247.155 665.494 248.004 665.789 248.665C665.494 248.476 665.198 248.287 664.903 248.004C664.607 247.249 664.41 246.494 664.213 245.739L662.341 244.324C662.341 244.041 662.243 243.662 662.243 243.379L664.016 244.701C663.819 243.851 663.721 243.002 663.622 242.152L664.41 242.53C664.41 243.379 664.607 244.324 664.805 245.268Z" fill="#94E0FF"/>
<path d="M664.41 236.678C664.213 237.527 664.213 238.377 664.115 239.321L668.154 241.492V242.341L664.115 240.17C664.115 240.642 664.115 241.114 664.213 241.586L663.426 241.208C663.426 240.737 663.326 240.265 663.326 239.793L662.045 239.132C662.045 238.849 662.145 238.566 662.145 238.377L663.326 239.038C663.326 238.189 663.425 237.338 663.524 236.489L664.017 236.678C664.213 236.583 664.312 236.583 664.41 236.678Z" fill="#94E0FF"/>
<path d="M665.1 234.223L666.086 234.6C666.775 234.885 667.465 235.168 668.253 235.451V236.3C667.563 236.017 666.874 235.734 666.282 235.451L664.903 234.979C664.805 235.262 664.705 235.545 664.607 235.923C664.41 235.828 664.213 235.734 664.016 235.734L663.819 235.639C663.917 235.356 663.917 234.979 664.016 234.695L663.426 234.506C663.524 234.223 663.721 234.034 663.917 233.845L664.312 233.94C664.41 233.562 664.509 233.279 664.705 232.996C665.198 232.524 665.789 232.335 666.381 232.241C665.888 232.713 665.494 233.374 665.1 234.223Z" fill="#94E0FF"/>
<path d="M666.381 249.797C666.874 250.93 667.465 251.969 668.154 252.818V254.234C666.479 252.913 665.001 251.307 663.721 249.514C663.425 248.854 663.228 248.193 663.031 247.438L663.129 247.533C664.312 249.42 665.691 251.119 667.267 252.63C666.577 251.496 665.986 250.364 665.395 249.231C665.691 249.42 665.986 249.609 666.381 249.797Z" fill="#94E0FF"/>
<path d="M659.977 237.904C659.977 238.376 660.075 238.848 660.075 239.414L659.287 238.943C659.189 238.282 659.189 237.716 659.189 237.055C659.189 236.3 659.287 235.545 659.385 234.885L660.173 235.168C660.075 235.734 659.977 236.395 659.977 237.055L661.454 237.904C661.454 238.188 661.356 238.471 661.356 238.659L659.977 237.904Z" fill="#94E0FF"/>
<path d="M660.764 233.468C660.666 233.751 660.568 234.035 660.371 234.318L659.583 234.035C659.681 233.562 659.878 233.09 660.075 232.619C660.666 232.052 661.356 231.769 662.145 231.486C661.75 231.864 661.356 232.241 661.061 232.713L662.834 233.375C662.736 233.562 662.538 233.845 662.44 234.035L660.764 233.468Z" fill="#94E0FF"/>
<path d="M670.618 230.826C676.922 234.317 681.947 242.718 681.947 249.703C681.947 253.762 680.175 256.404 677.415 257.16C678.007 256.593 678.598 255.932 678.992 255.178C679.386 254.8 679.78 254.423 680.075 253.951L679.584 253.762C679.682 253.479 679.682 253.29 679.78 253.007L680.47 253.29C680.963 252.252 681.159 251.12 681.258 249.703L679.879 248.948C679.879 248.665 679.78 248.382 679.78 248.004L681.356 248.854C681.356 247.438 681.061 246.021 680.568 244.417L678.007 242.53C677.81 242.058 677.613 241.586 677.317 241.208L680.175 243.285C678.894 239.886 676.726 236.583 674.066 234.129C675.346 236.111 676.332 238.376 676.922 240.452C676.529 239.698 676.036 239.037 675.543 238.282C674.46 235.356 672.883 232.996 671.109 231.864V233.562C670.814 233.374 670.618 233.185 670.322 232.996V231.486C669.337 231.014 668.449 231.014 667.563 231.392C667.17 231.203 666.775 231.109 666.381 230.92C666.677 230.731 666.972 230.542 667.268 230.354C666.184 230.165 665.198 230.165 664.213 230.448C663.228 230.354 662.341 230.448 661.553 230.637C663.721 228.843 666.972 228.748 670.618 230.826Z" fill="#94E0FF"/>
<path d="M145.781 627.071C145.781 629.147 147.259 631.695 149.131 632.734C151.003 633.772 152.48 632.923 152.48 630.846C152.48 628.77 151.003 626.221 149.131 625.183C147.259 624.239 145.781 625.088 145.781 627.071Z" fill="#198CBF"/>
<path d="M149.524 635C148.933 635 148.244 634.811 147.554 634.433C145.387 633.207 143.711 630.469 143.711 628.015C143.711 626.693 144.204 625.655 145.19 625.183C146.175 624.711 147.357 624.711 148.54 625.372C150.707 626.599 152.382 629.336 152.382 631.79C152.382 633.111 151.889 634.15 150.904 634.622C150.51 634.905 150.017 635 149.524 635ZM146.471 626.599C146.273 626.599 146.175 626.599 146.076 626.693C145.78 626.882 145.583 627.355 145.583 628.015C145.583 629.808 146.963 631.979 148.54 632.828C149.131 633.112 149.623 633.207 150.017 633.018C150.312 632.828 150.51 632.356 150.51 631.696C150.51 629.903 149.131 627.732 147.554 626.882C147.159 626.693 146.766 626.599 146.471 626.599Z" fill="#454646"/>
<path d="M189.329 602.813L237.999 629.714V575.911L189.329 549.01V602.813Z" fill="white" stroke="#485E68" stroke-miterlimit="10"/>
<path d="M235.043 633.301L184.599 605.361V549.482L235.043 577.422V633.301ZM186.471 604.322L233.171 630.185V578.46L186.471 552.597V604.322Z" fill="#454646"/>
<path d="M184.894 604.105L149.92 627.344L150.987 628.818L185.961 605.579L184.894 604.105Z" fill="#454646"/>
<path d="M225.684 583.18L226.669 584.879L225.684 585.445V584.312V583.18Z" fill="#94E0FF"/>
<path d="M203.516 599.604V600.453V601.302L202.53 599.887L203.516 599.604Z" fill="#94E0FF"/>
<path d="M214.354 578.272C221.448 582.142 227.063 591.674 227.063 599.415C227.063 607.154 221.349 610.27 214.255 606.399C207.162 602.529 201.546 592.997 201.546 585.256C201.546 577.517 207.26 574.401 214.354 578.272Z" fill="#94E0FF"/>
<path d="M198.786 599.981L199.181 600.736L198.984 600.831L198.491 601.019L198.984 601.586L199.181 601.963L198.688 602.341L197.407 600.359L198.786 599.981Z" fill="#485E68"/>
<path d="M198.984 600.831L205.487 604.511L210.61 607.438V608.098V608.193L198.984 601.586L198.491 601.018L198.984 600.831Z" fill="#485E68"/>
<path d="M213.27 581.103C218.787 585.823 222.826 593.751 222.826 600.359C222.826 608.004 217.408 611.214 210.61 608.004V607.343L205.487 604.417C200.265 599.603 196.521 592.146 196.619 585.728C196.619 577.893 202.432 574.59 209.526 578.365V578.838L213.27 581.103ZM209.624 606.777C216.521 610.552 222.038 607.532 222.038 599.98C222.038 592.43 216.521 583.273 209.624 579.404C202.727 575.628 197.21 578.648 197.112 586.2C197.21 593.751 202.827 603.001 209.624 606.777Z" fill="#485E68"/>
<path d="M221.349 583.841L222.629 585.917L221.349 586.672L220.857 585.822L221.25 585.539L221.645 585.351L221.25 584.784L220.857 584.124L221.349 583.841Z" fill="#485E68"/>
<path d="M209.428 578.272L221.25 584.784L221.645 585.351L221.25 585.539L213.27 581.103L209.428 579.027V578.555V578.272Z" fill="#485E68"/>
<path d="M334.946 390.154C334.946 390.154 332.385 376.373 348.741 375.524C348.741 375.524 345.981 353.908 372.484 360.704C372.484 360.704 374.849 349 396.426 354.192" stroke="#485E68" stroke-miterlimit="10"/>
<path d="M600.173 421.02V385.718H664.509V421.02L632.39 438.671L600.173 421.02Z" fill="white"/>
<path d="M663.622 386.473V420.453L632.193 437.82L600.862 420.547V386.567H663.622V386.473ZM665.297 384.868H599.286V421.491L632.39 439.803L665.494 421.491L665.297 384.868Z" fill="#485E68"/>
<path d="M632.39 401.103C631.011 401.103 629.829 400.819 628.844 400.159L601.158 384.773L632.587 367.406L664.017 384.773L636.331 400.064C634.952 400.725 633.573 401.103 632.39 401.103Z" fill="white"/>
<path d="M632.39 368.539L662.045 384.868L635.642 399.404C634.656 399.877 633.573 400.254 632.39 400.254C631.208 400.254 630.124 399.971 629.139 399.404L602.734 384.868L632.39 368.539ZM632.39 366.556L599.286 384.868L628.252 400.915C629.434 401.575 631.011 401.858 632.39 401.858C633.77 401.858 635.247 401.575 636.528 400.915L665.494 384.868L632.39 366.556Z" fill="#485E68"/>
<path d="M629.73 379.11C630.42 379.487 631.011 379.959 631.306 380.621C632.292 382.414 630.518 384.396 627.365 384.962C625.198 385.339 622.833 384.962 621.356 384.113C620.666 383.735 620.075 383.169 619.779 382.603C618.794 380.81 620.568 378.827 623.72 378.355C625.888 377.883 628.153 378.26 629.73 379.11Z" fill="#94E0FF"/>
<path d="M644.706 386.756C645.396 387.133 645.987 387.605 646.282 388.266C647.268 390.059 645.494 392.042 642.341 392.608C640.174 392.985 637.809 392.608 636.331 391.759C635.642 391.38 635.05 390.908 634.754 390.248C633.77 388.455 635.542 386.473 638.695 385.905C640.863 385.528 643.227 385.905 644.706 386.756Z" fill="#94E0FF"/>
<path d="M258.492 476.897C259.281 477.274 259.281 477.935 258.492 478.408C257.802 478.785 256.521 478.88 255.832 478.408L247.26 473.783C246.472 473.405 246.472 472.649 247.26 472.272C247.95 471.894 249.231 471.8 249.92 472.272L258.492 476.897Z" fill="#94E0FF"/>
<path d="M278.985 478.88C279.871 479.352 279.871 480.107 278.985 480.578C278.197 481.05 276.817 481.05 275.931 480.578L255.142 469.346C254.256 468.874 254.256 468.119 255.142 467.646C255.93 467.175 257.309 467.175 258.197 467.646L278.985 478.88Z" fill="#94E0FF"/>
</svg>
