<svg width="221" height="55" viewBox="0 0 221 55" fill="none" xmlns="http://www.w3.org/2000/svg">
<path d="M117 43.48C114.36 43.48 112.053 42.88 110.08 41.68C108.107 40.48 106.573 38.8 105.48 36.64C104.387 34.48 103.84 31.96 103.84 29.08C103.84 26.2267 104.4 23.7067 105.52 21.52C106.64 19.3333 108.227 17.6267 110.28 16.4C112.36 15.1467 114.813 14.52 117.64 14.52C120.84 14.52 123.507 15.2933 125.64 16.84C127.773 18.3867 129.16 20.52 129.8 23.24H125C124.573 21.7467 123.733 20.5733 122.48 19.72C121.227 18.8667 119.613 18.44 117.64 18.44C114.707 18.44 112.4 19.3867 110.72 21.28C109.04 23.1733 108.2 25.7867 108.2 29.12C108.2 32.4533 109.027 35.0533 110.68 36.92C112.333 38.7867 114.533 39.72 117.28 39.72C120.053 39.72 122.133 38.9333 123.52 37.36C124.933 35.7867 125.76 33.6933 126 31.08H118.4V27.8H130.28V43H126.4L126.04 38.88C125.107 40.3467 123.933 41.48 122.52 42.28C121.107 43.08 119.267 43.48 117 43.48ZM141.986 43.48C140.306 43.48 138.919 43.2 137.826 42.64C136.733 42.08 135.919 41.3467 135.386 40.44C134.853 39.5067 134.586 38.4933 134.586 37.4C134.586 35.48 135.333 33.96 136.826 32.84C138.319 31.72 140.453 31.16 143.226 31.16H148.426V30.8C148.426 29.2533 147.999 28.0933 147.146 27.32C146.319 26.5467 145.239 26.16 143.906 26.16C142.733 26.16 141.706 26.4533 140.826 27.04C139.973 27.6 139.453 28.44 139.266 29.56H135.026C135.159 28.12 135.639 26.8933 136.466 25.88C137.319 24.84 138.386 24.0533 139.666 23.52C140.973 22.96 142.399 22.68 143.946 22.68C146.719 22.68 148.866 23.4133 150.386 24.88C151.906 26.32 152.666 28.2933 152.666 30.8V43H148.986L148.626 39.6C148.066 40.6933 147.253 41.6133 146.186 42.36C145.119 43.1067 143.719 43.48 141.986 43.48ZM142.826 40.04C143.973 40.04 144.933 39.7733 145.706 39.24C146.506 38.68 147.119 37.9467 147.546 37.04C147.999 36.1333 148.279 35.1333 148.386 34.04H143.666C141.986 34.04 140.786 34.3333 140.066 34.92C139.373 35.5067 139.026 36.24 139.026 37.12C139.026 38.0267 139.359 38.7467 140.026 39.28C140.719 39.7867 141.653 40.04 142.826 40.04ZM157.61 43V14.2H161.85V43H157.61ZM169.619 19.4C168.819 19.4 168.152 19.16 167.619 18.68C167.112 18.1733 166.859 17.5467 166.859 16.8C166.859 16.0533 167.112 15.44 167.619 14.96C168.152 14.4533 168.819 14.2 169.619 14.2C170.419 14.2 171.072 14.4533 171.579 14.96C172.112 15.44 172.379 16.0533 172.379 16.8C172.379 17.5467 172.112 18.1733 171.579 18.68C171.072 19.16 170.419 19.4 169.619 19.4ZM167.499 43V23.16H171.739V43H167.499ZM185.456 36.92C184.416 36.92 183.456 36.8 182.576 36.56L180.856 38.24C181.15 38.4267 181.51 38.5867 181.936 38.72C182.363 38.8533 182.963 38.9733 183.736 39.08C184.51 39.1867 185.563 39.2933 186.896 39.4C189.536 39.64 191.443 40.28 192.616 41.32C193.79 42.3333 194.376 43.6933 194.376 45.4C194.376 46.5733 194.056 47.68 193.416 48.72C192.803 49.7867 191.83 50.64 190.496 51.28C189.19 51.9467 187.51 52.28 185.456 52.28C182.683 52.28 180.43 51.7467 178.696 50.68C176.99 49.64 176.136 48.0533 176.136 45.92C176.136 45.0933 176.35 44.2667 176.776 43.44C177.23 42.64 177.936 41.88 178.896 41.16C178.336 40.92 177.843 40.6667 177.416 40.4C177.016 40.1067 176.656 39.8133 176.336 39.52V38.56L179.776 35.04C178.23 33.7067 177.456 31.96 177.456 29.8C177.456 28.4933 177.763 27.3067 178.376 26.24C179.016 25.1467 179.936 24.28 181.136 23.64C182.336 23 183.776 22.68 185.456 22.68C186.576 22.68 187.616 22.84 188.576 23.16H195.976V25.96L192.456 26.16C193.096 27.2533 193.416 28.4667 193.416 29.8C193.416 31.1333 193.096 32.3333 192.456 33.4C191.843 34.4667 190.936 35.32 189.736 35.96C188.563 36.6 187.136 36.92 185.456 36.92ZM185.456 33.6C186.683 33.6 187.67 33.28 188.416 32.64C189.19 31.9733 189.576 31.04 189.576 29.84C189.576 28.6133 189.19 27.68 188.416 27.04C187.67 26.4 186.683 26.08 185.456 26.08C184.203 26.08 183.19 26.4 182.416 27.04C181.67 27.68 181.296 28.6133 181.296 29.84C181.296 31.04 181.67 31.9733 182.416 32.64C183.19 33.28 184.203 33.6 185.456 33.6ZM180.136 45.52C180.136 46.6667 180.643 47.52 181.656 48.08C182.67 48.6667 183.936 48.96 185.456 48.96C186.923 48.96 188.11 48.64 189.016 48C189.923 47.3867 190.376 46.56 190.376 45.52C190.376 44.7467 190.07 44.08 189.456 43.52C188.843 42.9867 187.683 42.6533 185.976 42.52C184.696 42.44 183.563 42.32 182.576 42.16C181.643 42.6667 181.003 43.2133 180.656 43.8C180.31 44.3867 180.136 44.96 180.136 45.52ZM208.257 43.48C206.364 43.48 204.657 43.0533 203.137 42.2C201.644 41.32 200.457 40.1067 199.577 38.56C198.697 36.9867 198.257 35.16 198.257 33.08C198.257 31 198.697 29.1867 199.577 27.64C200.484 26.0667 201.697 24.8533 203.217 24C204.737 23.12 206.43 22.68 208.297 22.68C210.19 22.68 211.884 23.12 213.377 24C214.897 24.8533 216.097 26.0667 216.977 27.64C217.884 29.1867 218.337 31 218.337 33.08C218.337 35.16 217.884 36.9867 216.977 38.56C216.097 40.1067 214.897 41.32 213.377 42.2C211.857 43.0533 210.15 43.48 208.257 43.48ZM208.257 39.84C209.27 39.84 210.204 39.5867 211.057 39.08C211.937 38.5733 212.644 37.8267 213.177 36.84C213.71 35.8267 213.977 34.5733 213.977 33.08C213.977 31.5867 213.71 30.3467 213.177 29.36C212.67 28.3467 211.977 27.5867 211.097 27.08C210.244 26.5733 209.31 26.32 208.297 26.32C207.284 26.32 206.337 26.5733 205.457 27.08C204.604 27.5867 203.91 28.3467 203.377 29.36C202.844 30.3467 202.577 31.5867 202.577 33.08C202.577 34.5733 202.844 35.8267 203.377 36.84C203.91 37.8267 204.604 38.5733 205.457 39.08C206.31 39.5867 207.244 39.84 208.257 39.84Z" fill="#0066FF"/>
<path fill-rule="evenodd" clip-rule="evenodd" d="M62.5143 4.9269C70.8629 14.3823 81.2 29.1629 73.6514 42.6934C67.9657 52.8903 55.7029 53.4725 48.5829 44.0783C46.0914 40.7876 39.0343 26.3379 34.6286 28.9546C30.2857 31.5283 25.1257 41.0205 15.7086 45.9903C12.4514 47.7122 3.2 50.8313 0 46.744C1.26286 45.8861 0.428571 46.3273 2.51429 45.7942C14.3143 42.7853 18.12 35.9037 25.1714 25.9886C34.4971 12.881 43.3029 18.2062 51.9371 28.7095C53.7371 30.9033 58.5886 39.801 61.5371 36.6819C66.2286 31.7183 54.7771 19.7381 52.12 17.1154C48.9829 14.033 48.7657 8.81202 51.6343 5.44778C54.5029 2.08354 59.3714 1.84455 62.5143 4.9269Z" fill="#0066FF"/>
<path fill-rule="evenodd" clip-rule="evenodd" d="M80.2971 43.006C83.7885 24.9959 79.5543 17.8324 68.3828 4.89628C68.3828 4.89628 64.2285 -0.0183324 65.88 5.14473e-05L66.04 0.0919706C70.1257 1.55655 70.16 0.919244 75.0857 4.33251C89.6 14.4069 93.2343 27.6922 91.9257 45.4449C91.2971 48.8888 88.1828 51.1316 84.9714 50.4576C81.76 49.7835 79.6685 46.4499 80.2971 43.006Z" fill="#94E0FF"/>
<path fill-rule="evenodd" clip-rule="evenodd" d="M38.9772 36.9149C40.8286 38.9004 40.3372 42.6446 37.88 45.2734C35.4229 47.9085 31.9314 48.4355 30.08 46.45C28.2286 44.4646 28.72 40.7204 31.1772 38.0854C33.6343 35.4503 37.1257 34.9295 38.9772 36.9149Z" fill="#94E0FF"/>
</svg>
